<?xml version="1.0" encoding="UTF-8" standalone="no"?><svg xmlns="http://www.w3.org/2000/svg" xmlns:xlink="http://www.w3.org/1999/xlink" contentStyleType="text/css" height="1619px" preserveAspectRatio="none" style="width:3047px;height:1619px;background:#FFFFFF;" version="1.1" viewBox="0 0 3047 1619" width="3047px" zoomAndPan="magnify"><defs/><g><!--MD5=[cae94fbbbce6eaad1a82826a4f451ee7]
cluster Provider Service--><g id="cluster_Provider Service"><path d="M262.5,210 L393.5,210 A3.75,3.75 0 0 1 396,212.5 L403,232.2969 L978.5,232.2969 A2.5,2.5 0 0 1 981,234.7969 L981,817 A2.5,2.5 0 0 1 978.5,819.5 L262.5,819.5 A2.5,2.5 0 0 1 260,817 L260,212.5 A2.5,2.5 0 0 1 262.5,210 " fill="#98FB98" style="stroke:#000000;stroke-width:1.5;"/><line style="stroke:#000000;stroke-width:1.5;" x1="260" x2="403" y1="232.2969" y2="232.2969"/><text fill="#000000" font-family="sans-serif" font-size="14" font-weight="bold" lengthAdjust="spacing" textLength="130" x="264" y="224.9951">Provider Service</text></g><!--MD5=[c0af09c565ca1b9205a2c5ef6b445cba]
cluster Publish Service--><g id="cluster_Publish Service"><path d="M1007.5,660 L1130.5,660 A3.75,3.75 0 0 1 1133,662.5 L1140,682.2969 L2307.5,682.2969 A2.5,2.5 0 0 1 2310,684.7969 L2310,1609.5 A2.5,2.5 0 0 1 2307.5,1612 L1007.5,1612 A2.5,2.5 0 0 1 1005,1609.5 L1005,662.5 A2.5,2.5 0 0 1 1007.5,660 " fill="#ADD8E6" style="stroke:#000000;stroke-width:1.5;"/><line style="stroke:#000000;stroke-width:1.5;" x1="1005" x2="1140" y1="682.2969" y2="682.2969"/><text fill="#000000" font-family="sans-serif" font-size="14" font-weight="bold" lengthAdjust="spacing" textLength="122" x="1009" y="674.9951">Publish Service</text></g><!--MD5=[7d8075136be6eab355d71793f60e19b7]
cluster Invoker Management--><g id="cluster_Invoker Management"><path d="M2336.5,412 L2506.5,412 A3.75,3.75 0 0 1 2509,414.5 L2516,434.2969 L2805.5,434.2969 A2.5,2.5 0 0 1 2808,436.7969 L2808,817 A2.5,2.5 0 0 1 2805.5,819.5 L2336.5,819.5 A2.5,2.5 0 0 1 2334,817 L2334,414.5 A2.5,2.5 0 0 1 2336.5,412 " fill="#FF7F50" style="stroke:#000000;stroke-width:1.5;"/><line style="stroke:#000000;stroke-width:1.5;" x1="2334" x2="2516" y1="434.2969" y2="434.2969"/><text fill="#000000" font-family="sans-serif" font-size="14" font-weight="bold" lengthAdjust="spacing" textLength="169" x="2338" y="426.9951">Invoker Management</text></g><!--MD5=[cf07b308dbab5452a5b006f8a8fd7710]
cluster Discover Service--><g id="cluster_Discover Service"><path d="M1917.5,30 L2050.5,30 A3.75,3.75 0 0 1 2053,32.5 L2060,52.2969 L2312.5,52.2969 A2.5,2.5 0 0 1 2315,54.7969 L2315,150.5 A2.5,2.5 0 0 1 2312.5,153 L1917.5,153 A2.5,2.5 0 0 1 1915,150.5 L1915,32.5 A2.5,2.5 0 0 1 1917.5,30 " fill="#FFFF00" style="stroke:#000000;stroke-width:1.5;"/><line style="stroke:#000000;stroke-width:1.5;" x1="1915" x2="2060" y1="52.2969" y2="52.2969"/><text fill="#000000" font-family="sans-serif" font-size="14" font-weight="bold" lengthAdjust="spacing" textLength="132" x="1919" y="44.9951">Discover Service</text></g><!--MD5=[90c610dc4d5619256b853946a4a00bb2]
cluster Security Service--><g id="cluster_Security Service"><path d="M917.5,6 L1048.5,6 A3.75,3.75 0 0 1 1051,8.5 L1058,28.2969 L1459.5,28.2969 A2.5,2.5 0 0 1 1462,30.7969 L1462,174.5 A2.5,2.5 0 0 1 1459.5,177 L917.5,177 A2.5,2.5 0 0 1 915,174.5 L915,8.5 A2.5,2.5 0 0 1 917.5,6 " fill="#FFC0CB" style="stroke:#000000;stroke-width:1.5;"/><line style="stroke:#000000;stroke-width:1.5;" x1="915" x2="1058" y1="28.2969" y2="28.2969"/><text fill="#000000" font-family="sans-serif" font-size="14" font-weight="bold" lengthAdjust="spacing" textLength="130" x="919" y="20.9951">Security Service</text></g><!--MD5=[0e252429fa10c7ec310cb63d32dcae66]
class APIProviderEnrolmentDetails--><g id="elem_APIProviderEnrolmentDetails"><rect codeLine="2" fill="#F1F1F1" height="113.1875" id="APIProviderEnrolmentDetails" rx="2.5" ry="2.5" style="stroke:#181818;stroke-width:0.5;" width="315" x="384.5" y="249"/><ellipse cx="433.25" cy="265" fill="#F1F1F1" rx="11" ry="11" style="stroke:#181818;stroke-width:1.0;"/><path d="M437.0313,260.9688 C437.0313,260.5313 437.0156,260.3906 436.9219,260.2344 C436.7813,260 436.5,259.8438 436.2031,259.8438 C435.8594,259.8438 435.7188,259.9844 435.5469,260.4063 C434.9531,260.0313 434.2031,259.8438 433.3281,259.8438 C431.2188,259.8438 429.6406,261.1406 429.6406,262.8594 C429.6406,263.8281 430.1719,264.7344 431.0313,265.2188 C431.5781,265.5313 432.125,265.7031 433.2344,265.8906 C434.3906,266.0938 434.6563,266.1563 435.0156,266.3438 C435.3906,266.5469 435.625,266.8906 435.625,267.25 C435.625,267.9844 434.6406,268.5313 433.3906,268.5313 C432.2656,268.5313 431.1875,268.0469 431.0156,267.4375 C430.8906,266.9688 430.8906,266.9688 430.7656,266.8594 C430.6094,266.7031 430.3906,266.6094 430.1563,266.6094 C429.875,266.6094 429.625,266.7344 429.4531,266.9531 C429.3438,267.125 429.2969,267.3125 429.2969,267.7344 L429.2969,268.8594 C429.2969,269.625 429.5781,269.9844 430.1719,269.9844 C430.4375,269.9844 430.5625,269.9219 430.8438,269.5781 C431.6875,270.0156 432.5781,270.2344 433.5,270.2344 C435.8281,270.2344 437.3906,269.0469 437.3906,267.2813 C437.3906,266.3906 437.0781,265.7031 436.3906,265.1563 C435.8594,264.7344 435.2188,264.4844 433.7344,264.2188 C432.4688,263.9844 432.375,263.9531 432.0469,263.7813 C431.6719,263.5938 431.4063,263.2031 431.4063,262.8438 C431.4063,262.1094 432.2656,261.5469 433.3281,261.5469 C434.3906,261.5469 435.2031,262.0156 435.3594,262.6875 C435.4688,263.2344 435.4688,263.2344 435.5938,263.375 C435.7344,263.5 435.9688,263.6094 436.2031,263.6094 C436.4688,263.6094 436.7188,263.4688 436.8906,263.25 C437,263.0781 437.0313,262.9375 437.0313,262.4688 L437.0313,260.9688 Z " fill="#000000"/><text fill="#000000" font-family="sans-serif" font-size="14" lengthAdjust="spacing" textLength="209" x="453.75" y="269.8467">APIProviderEnrolmentDetails</text><line style="stroke:#181818;stroke-width:0.5;" x1="385.5" x2="698.5" y1="281" y2="281"/><text fill="#000000" font-family="sans-serif" font-size="14" lengthAdjust="spacing" textLength="147" x="390.5" y="297.9951">string apiProvDomId</text><text fill="#000000" font-family="sans-serif" font-size="14" lengthAdjust="spacing" textLength="162" x="390.5" y="314.292">string apiProvDomInfo</text><text fill="#000000" font-family="sans-serif" font-size="14" lengthAdjust="spacing" textLength="303" x="390.5" y="330.5889">[]APIProviderFunctionDetails apiProvFuncs</text><line style="stroke:#181818;stroke-width:0.5;" x1="385.5" x2="698.5" y1="337.8906" y2="337.8906"/><text fill="#000000" font-family="sans-serif" font-size="14" lengthAdjust="spacing" textLength="170" x="390.5" y="354.8857">string regSec (required)</text></g><path d="M743,287.5 L743,296.0664 L537.5,293.1484 L743,304.0664 L743,312.6328 A0,0 0 0 0 743,312.6328 L929,312.6328 A0,0 0 0 0 929,312.6328 L929,297.5 L919,287.5 L743,287.5 A0,0 0 0 0 743,287.5 " fill="#FEFFDD" style="stroke:#181818;stroke-width:0.5;"/><path d="M919,287.5 L919,297.5 L929,297.5 L919,287.5 " fill="#FEFFDD" style="stroke:#181818;stroke-width:0.5;"/><text fill="#000000" font-family="sans-serif" font-size="13" lengthAdjust="spacing" textLength="165" x="749" y="304.5669">Id provided by CAPIF Core</text><!--MD5=[7f279047012c54823f76ad25d0814bfd]
class APIProviderFunctionDetails--><g id="elem_APIProviderFunctionDetails"><rect codeLine="11" fill="#F1F1F1" height="113.1875" id="APIProviderFunctionDetails" rx="2.5" ry="2.5" style="stroke:#181818;stroke-width:0.5;" width="386" x="350" y="451"/><ellipse cx="441.25" cy="467" fill="#F1F1F1" rx="11" ry="11" style="stroke:#181818;stroke-width:1.0;"/><path d="M445.0313,462.9688 C445.0313,462.5313 445.0156,462.3906 444.9219,462.2344 C444.7813,462 444.5,461.8438 444.2031,461.8438 C443.8594,461.8438 443.7188,461.9844 443.5469,462.4063 C442.9531,462.0313 442.2031,461.8438 441.3281,461.8438 C439.2188,461.8438 437.6406,463.1406 437.6406,464.8594 C437.6406,465.8281 438.1719,466.7344 439.0313,467.2188 C439.5781,467.5313 440.125,467.7031 441.2344,467.8906 C442.3906,468.0938 442.6563,468.1563 443.0156,468.3438 C443.3906,468.5469 443.625,468.8906 443.625,469.25 C443.625,469.9844 442.6406,470.5313 441.3906,470.5313 C440.2656,470.5313 439.1875,470.0469 439.0156,469.4375 C438.8906,468.9688 438.8906,468.9688 438.7656,468.8594 C438.6094,468.7031 438.3906,468.6094 438.1563,468.6094 C437.875,468.6094 437.625,468.7344 437.4531,468.9531 C437.3438,469.125 437.2969,469.3125 437.2969,469.7344 L437.2969,470.8594 C437.2969,471.625 437.5781,471.9844 438.1719,471.9844 C438.4375,471.9844 438.5625,471.9219 438.8438,471.5781 C439.6875,472.0156 440.5781,472.2344 441.5,472.2344 C443.8281,472.2344 445.3906,471.0469 445.3906,469.2813 C445.3906,468.3906 445.0781,467.7031 444.3906,467.1563 C443.8594,466.7344 443.2188,466.4844 441.7344,466.2188 C440.4688,465.9844 440.375,465.9531 440.0469,465.7813 C439.6719,465.5938 439.4063,465.2031 439.4063,464.8438 C439.4063,464.1094 440.2656,463.5469 441.3281,463.5469 C442.3906,463.5469 443.2031,464.0156 443.3594,464.6875 C443.4688,465.2344 443.4688,465.2344 443.5938,465.375 C443.7344,465.5 443.9688,465.6094 444.2031,465.6094 C444.4688,465.6094 444.7188,465.4688 444.8906,465.25 C445,465.0781 445.0313,464.9375 445.0313,464.4688 L445.0313,462.9688 Z " fill="#000000"/><text fill="#000000" font-family="sans-serif" font-size="14" lengthAdjust="spacing" textLength="195" x="461.75" y="471.8467">APIProviderFunctionDetails</text><line style="stroke:#181818;stroke-width:0.5;" x1="351" x2="735" y1="483" y2="483"/><text fill="#000000" font-family="sans-serif" font-size="14" lengthAdjust="spacing" textLength="146" x="356" y="499.9951">string apiProvFuncId</text><text fill="#000000" font-family="sans-serif" font-size="14" lengthAdjust="spacing" textLength="161" x="356" y="516.292">string apiProvFuncInfo</text><line style="stroke:#181818;stroke-width:0.5;" x1="351" x2="735" y1="523.5938" y2="523.5938"/><text fill="#000000" font-family="sans-serif" font-size="14" lengthAdjust="spacing" textLength="374" x="356" y="540.5889">ApiProviderFuncRole apiProviderFuncRole (required)</text><text fill="#000000" font-family="sans-serif" font-size="14" lengthAdjust="spacing" textLength="304" x="356" y="556.8857">RegistrationInformation regInfo (required)</text></g><path d="M779,489.5 L779,498.0664 L502,495.1484 L779,506.0664 L779,514.6328 A0,0 0 0 0 779,514.6328 L965,514.6328 A0,0 0 0 0 965,514.6328 L965,499.5 L955,489.5 L779,489.5 A0,0 0 0 0 779,489.5 " fill="#FEFFDD" style="stroke:#181818;stroke-width:0.5;"/><path d="M955,489.5 L955,499.5 L965,499.5 L955,489.5 " fill="#FEFFDD" style="stroke:#181818;stroke-width:0.5;"/><text fill="#000000" font-family="sans-serif" font-size="13" lengthAdjust="spacing" textLength="165" x="785" y="506.5669">Id provided by CAPIF Core</text><!--MD5=[67b08351a787f22226f346261cc25825]
class ApiProviderFuncRole--><g id="elem_ApiProviderFuncRole"><rect codeLine="20" fill="#F1F1F1" height="96.8906" id="ApiProviderFuncRole" rx="2.5" ry="2.5" style="stroke:#181818;stroke-width:0.5;" width="413" x="276.5" y="706.5"/><ellipse cx="404.25" cy="722.5" fill="#EB937F" rx="11" ry="11" style="stroke:#181818;stroke-width:1.0;"/><path d="M403.0469,723.375 L404.5,723.375 L404.5,723.4844 C404.5,723.8906 404.5313,724.0469 404.6094,724.2031 C404.7656,724.4531 405.0469,724.6094 405.3438,724.6094 C405.5938,724.6094 405.8594,724.4688 406.0156,724.25 C406.1406,724.0938 406.1719,723.9375 406.1719,723.4844 L406.1719,721.5625 C406.1719,721.4063 406.1719,721.3594 406.1563,721.2031 C406.0938,720.7344 405.7813,720.4219 405.3281,720.4219 C405.0781,720.4219 404.8125,720.5625 404.6406,720.7813 C404.5313,720.9531 404.5,721.1094 404.5,721.5625 L404.5,721.6875 L403.0469,721.6875 L403.0469,719.2813 L407.0313,719.2813 L407.0313,720.1406 C407.0313,720.5469 407.0625,720.7188 407.1406,720.875 C407.3125,721.125 407.5938,721.2813 407.875,721.2813 C408.1406,721.2813 408.4063,721.1406 408.5781,720.9219 C408.6875,720.75 408.7188,720.6094 408.7188,720.1406 L408.7188,717.5938 L401.0938,717.5938 C400.6563,717.5938 400.5313,717.6094 400.375,717.7031 C400.125,717.8594 399.9688,718.1563 399.9688,718.4375 C399.9688,718.7188 400.1094,718.9688 400.3281,719.1406 C400.4844,719.25 400.6719,719.2813 401.0938,719.2813 L401.3438,719.2813 L401.3438,725.7969 L401.0938,725.7969 C400.6875,725.7969 400.5313,725.8125 400.375,725.9219 C400.125,726.0938 399.9688,726.3594 399.9688,726.6563 C399.9688,726.9219 400.1094,727.1719 400.3281,727.3281 C400.4688,727.4531 400.7031,727.5 401.0938,727.5 L409.0938,727.5 L409.0938,724.9219 C409.0938,724.4844 409.0625,724.3438 408.9844,724.1875 C408.8125,723.9375 408.5313,723.7813 408.25,723.7813 C407.9844,723.7813 407.7188,723.8906 407.5469,724.1406 C407.4375,724.2969 407.4063,724.4375 407.4063,724.9219 L407.4063,725.7969 L403.0469,725.7969 L403.0469,723.375 Z " fill="#000000"/><text fill="#000000" font-family="sans-serif" font-size="14" lengthAdjust="spacing" textLength="149" x="424.75" y="727.3467">ApiProviderFuncRole</text><line style="stroke:#181818;stroke-width:0.5;" x1="277.5" x2="688.5" y1="738.5" y2="738.5"/><text fill="#000000" font-family="sans-serif" font-size="14" lengthAdjust="spacing" textLength="370" x="282.5" y="755.4951">AEF: API provider function is API Exposing Function.</text><text fill="#000000" font-family="sans-serif" font-size="14" lengthAdjust="spacing" textLength="378" x="282.5" y="771.792">APF: API provider function is API Publishing Function.</text><text fill="#000000" font-family="sans-serif" font-size="14" lengthAdjust="spacing" textLength="401" x="282.5" y="788.0889">AMF: API Provider function is API Management Function.</text><line style="stroke:#181818;stroke-width:0.5;" x1="277.5" x2="688.5" y1="795.3906" y2="795.3906"/></g><!--MD5=[1f62e39e6986077d5626c6cf81ffb380]
class RegistrationInformation--><g id="elem_RegistrationInformation"><rect codeLine="25" fill="#F1F1F1" height="80.5938" id="RegistrationInformation" rx="2.5" ry="2.5" style="stroke:#181818;stroke-width:0.5;" width="240" x="725" y="714.5"/><ellipse cx="755.3" cy="730.5" fill="#F1F1F1" rx="11" ry="11" style="stroke:#181818;stroke-width:1.0;"/><path d="M759.0813,726.4688 C759.0813,726.0313 759.0656,725.8906 758.9719,725.7344 C758.8313,725.5 758.55,725.3438 758.2531,725.3438 C757.9094,725.3438 757.7688,725.4844 757.5969,725.9063 C757.0031,725.5313 756.2531,725.3438 755.3781,725.3438 C753.2688,725.3438 751.6906,726.6406 751.6906,728.3594 C751.6906,729.3281 752.2219,730.2344 753.0813,730.7188 C753.6281,731.0313 754.175,731.2031 755.2844,731.3906 C756.4406,731.5938 756.7063,731.6563 757.0656,731.8438 C757.4406,732.0469 757.675,732.3906 757.675,732.75 C757.675,733.4844 756.6906,734.0313 755.4406,734.0313 C754.3156,734.0313 753.2375,733.5469 753.0656,732.9375 C752.9406,732.4688 752.9406,732.4688 752.8156,732.3594 C752.6594,732.2031 752.4406,732.1094 752.2063,732.1094 C751.925,732.1094 751.675,732.2344 751.5031,732.4531 C751.3938,732.625 751.3469,732.8125 751.3469,733.2344 L751.3469,734.3594 C751.3469,735.125 751.6281,735.4844 752.2219,735.4844 C752.4875,735.4844 752.6125,735.4219 752.8938,735.0781 C753.7375,735.5156 754.6281,735.7344 755.55,735.7344 C757.8781,735.7344 759.4406,734.5469 759.4406,732.7813 C759.4406,731.8906 759.1281,731.2031 758.4406,730.6563 C757.9094,730.2344 757.2688,729.9844 755.7844,729.7188 C754.5188,729.4844 754.425,729.4531 754.0969,729.2813 C753.7219,729.0938 753.4563,728.7031 753.4563,728.3438 C753.4563,727.6094 754.3156,727.0469 755.3781,727.0469 C756.4406,727.0469 757.2531,727.5156 757.4094,728.1875 C757.5188,728.7344 757.5188,728.7344 757.6438,728.875 C757.7844,729 758.0188,729.1094 758.2531,729.1094 C758.5188,729.1094 758.7688,728.9688 758.9406,728.75 C759.05,728.5781 759.0813,728.4375 759.0813,727.9688 L759.0813,726.4688 Z " fill="#000000"/><text fill="#000000" font-family="sans-serif" font-size="14" lengthAdjust="spacing" textLength="174" x="772.7" y="735.3467">RegistrationInformation</text><line style="stroke:#181818;stroke-width:0.5;" x1="726" x2="964" y1="746.5" y2="746.5"/><text fill="#000000" font-family="sans-serif" font-size="14" lengthAdjust="spacing" textLength="132" x="731" y="763.4951">string apiProvCert</text><line style="stroke:#181818;stroke-width:0.5;" x1="726" x2="964" y1="770.7969" y2="770.7969"/><text fill="#000000" font-family="sans-serif" font-size="14" lengthAdjust="spacing" textLength="228" x="731" y="787.792">string apiProvPubKey (required)</text></g><!--MD5=[30aa660395d9fb6e2ca898b7ec3ec3d0]
class ServiceAPIDescription--><g id="elem_ServiceAPIDescription"><rect codeLine="35" fill="#F1F1F1" height="113.1875" id="ServiceAPIDescription" rx="2.5" ry="2.5" style="stroke:#181818;stroke-width:0.5;" width="195" x="1984.5" y="699"/><ellipse cx="2000.85" cy="715" fill="#F1F1F1" rx="11" ry="11" style="stroke:#181818;stroke-width:1.0;"/><path d="M2004.6313,710.9688 C2004.6313,710.5313 2004.6156,710.3906 2004.5219,710.2344 C2004.3813,710 2004.1,709.8438 2003.8031,709.8438 C2003.4594,709.8438 2003.3188,709.9844 2003.1469,710.4063 C2002.5531,710.0313 2001.8031,709.8438 2000.9281,709.8438 C1998.8188,709.8438 1997.2406,711.1406 1997.2406,712.8594 C1997.2406,713.8281 1997.7719,714.7344 1998.6313,715.2188 C1999.1781,715.5313 1999.725,715.7031 2000.8344,715.8906 C2001.9906,716.0938 2002.2563,716.1563 2002.6156,716.3438 C2002.9906,716.5469 2003.225,716.8906 2003.225,717.25 C2003.225,717.9844 2002.2406,718.5313 2000.9906,718.5313 C1999.8656,718.5313 1998.7875,718.0469 1998.6156,717.4375 C1998.4906,716.9688 1998.4906,716.9688 1998.3656,716.8594 C1998.2094,716.7031 1997.9906,716.6094 1997.7563,716.6094 C1997.475,716.6094 1997.225,716.7344 1997.0531,716.9531 C1996.9438,717.125 1996.8969,717.3125 1996.8969,717.7344 L1996.8969,718.8594 C1996.8969,719.625 1997.1781,719.9844 1997.7719,719.9844 C1998.0375,719.9844 1998.1625,719.9219 1998.4438,719.5781 C1999.2875,720.0156 2000.1781,720.2344 2001.1,720.2344 C2003.4281,720.2344 2004.9906,719.0469 2004.9906,717.2813 C2004.9906,716.3906 2004.6781,715.7031 2003.9906,715.1563 C2003.4594,714.7344 2002.8188,714.4844 2001.3344,714.2188 C2000.0688,713.9844 1999.975,713.9531 1999.6469,713.7813 C1999.2719,713.5938 1999.0063,713.2031 1999.0063,712.8438 C1999.0063,712.1094 1999.8656,711.5469 2000.9281,711.5469 C2001.9906,711.5469 2002.8031,712.0156 2002.9594,712.6875 C2003.0688,713.2344 2003.0688,713.2344 2003.1938,713.375 C2003.3344,713.5 2003.5688,713.6094 2003.8031,713.6094 C2004.0688,713.6094 2004.3188,713.4688 2004.4906,713.25 C2004.6,713.0781 2004.6313,712.9375 2004.6313,712.4688 L2004.6313,710.9688 Z " fill="#000000"/><text fill="#000000" font-family="sans-serif" font-size="14" lengthAdjust="spacing" textLength="160" x="2015.15" y="719.8467">ServiceAPIDescription</text><line style="stroke:#181818;stroke-width:0.5;" x1="1985.5" x2="2178.5" y1="731" y2="731"/><text fill="#000000" font-family="sans-serif" font-size="14" lengthAdjust="spacing" textLength="81" x="1990.5" y="747.9951">string apiId</text><text fill="#000000" font-family="sans-serif" font-size="14" lengthAdjust="spacing" textLength="128" x="1990.5" y="764.292">string description</text><text fill="#000000" font-family="sans-serif" font-size="14" lengthAdjust="spacing" textLength="163" x="1990.5" y="780.5889">[]AefProfile aefProfiles</text><line style="stroke:#181818;stroke-width:0.5;" x1="1985.5" x2="2178.5" y1="787.8906" y2="787.8906"/><text fill="#000000" font-family="sans-serif" font-size="14" lengthAdjust="spacing" textLength="183" x="1990.5" y="804.8857">string apiName (required)</text></g><path d="M1755,737.5 L1755,762.6328 A0,0 0 0 0 1755,762.6328 L1941,762.6328 A0,0 0 0 0 1941,762.6328 L1941,755.5 L1988.5,743.1484 L1941,747.5 L1941,747.5 L1931,737.5 L1755,737.5 A0,0 0 0 0 1755,737.5 " fill="#FEFFDD" style="stroke:#181818;stroke-width:0.5;"/><path d="M1931,737.5 L1931,747.5 L1941,747.5 L1931,737.5 " fill="#FEFFDD" style="stroke:#181818;stroke-width:0.5;"/><text fill="#000000" font-family="sans-serif" font-size="13" lengthAdjust="spacing" textLength="165" x="1761" y="754.5669">Id provided by CAPIF Core</text><g id="elem_publishProviderRel"><path d="M1021.5,932.5 L1021.5,987.8984 L1316.5,987.8984 L1316.5,942.5 L1306.5,932.5 L1021.5,932.5 " fill="#FEFFDD" style="stroke:#181818;stroke-width:0.5;"/><path d="M1306.5,932.5 L1306.5,942.5 L1316.5,942.5 L1306.5,932.5 " fill="#FEFFDD" style="stroke:#181818;stroke-width:1.0;"/><text fill="#000000" font-family="sans-serif" font-size="13" lengthAdjust="spacing" textLength="96" x="1027.5" y="949.5669">apfId matching</text><text fill="#000000" font-family="sans-serif" font-size="13" lengthAdjust="spacing" textLength="270" x="1031.5" y="964.6997">APIProviderFunctionDetails::apiProvFuncId</text><text fill="#000000" font-family="sans-serif" font-size="13" lengthAdjust="spacing" textLength="220" x="1031.5" y="979.8325">must be provided when publishing</text></g><!--MD5=[1c40ba31a6e0033614eeca8255f08bb3]
class AefProfile--><g id="elem_AefProfile"><rect codeLine="47" fill="#F1F1F1" height="162.0781" id="AefProfile" rx="2.5" ry="2.5" style="stroke:#181818;stroke-width:0.5;" width="333" x="1359.5" y="880"/><ellipse cx="1485.75" cy="896" fill="#F1F1F1" rx="11" ry="11" style="stroke:#181818;stroke-width:1.0;"/><path d="M1489.5313,891.9688 C1489.5313,891.5313 1489.5156,891.3906 1489.4219,891.2344 C1489.2813,891 1489,890.8438 1488.7031,890.8438 C1488.3594,890.8438 1488.2188,890.9844 1488.0469,891.4063 C1487.4531,891.0313 1486.7031,890.8438 1485.8281,890.8438 C1483.7188,890.8438 1482.1406,892.1406 1482.1406,893.8594 C1482.1406,894.8281 1482.6719,895.7344 1483.5313,896.2188 C1484.0781,896.5313 1484.625,896.7031 1485.7344,896.8906 C1486.8906,897.0938 1487.1563,897.1563 1487.5156,897.3438 C1487.8906,897.5469 1488.125,897.8906 1488.125,898.25 C1488.125,898.9844 1487.1406,899.5313 1485.8906,899.5313 C1484.7656,899.5313 1483.6875,899.0469 1483.5156,898.4375 C1483.3906,897.9688 1483.3906,897.9688 1483.2656,897.8594 C1483.1094,897.7031 1482.8906,897.6094 1482.6563,897.6094 C1482.375,897.6094 1482.125,897.7344 1481.9531,897.9531 C1481.8438,898.125 1481.7969,898.3125 1481.7969,898.7344 L1481.7969,899.8594 C1481.7969,900.625 1482.0781,900.9844 1482.6719,900.9844 C1482.9375,900.9844 1483.0625,900.9219 1483.3438,900.5781 C1484.1875,901.0156 1485.0781,901.2344 1486,901.2344 C1488.3281,901.2344 1489.8906,900.0469 1489.8906,898.2813 C1489.8906,897.3906 1489.5781,896.7031 1488.8906,896.1563 C1488.3594,895.7344 1487.7188,895.4844 1486.2344,895.2188 C1484.9688,894.9844 1484.875,894.9531 1484.5469,894.7813 C1484.1719,894.5938 1483.9063,894.2031 1483.9063,893.8438 C1483.9063,893.1094 1484.7656,892.5469 1485.8281,892.5469 C1486.8906,892.5469 1487.7031,893.0156 1487.8594,893.6875 C1487.9688,894.2344 1487.9688,894.2344 1488.0938,894.375 C1488.2344,894.5 1488.4688,894.6094 1488.7031,894.6094 C1488.9688,894.6094 1489.2188,894.4688 1489.3906,894.25 C1489.5,894.0781 1489.5313,893.9375 1489.5313,893.4688 L1489.5313,891.9688 Z " fill="#000000"/><text fill="#000000" font-family="sans-serif" font-size="14" lengthAdjust="spacing" textLength="72" x="1506.25" y="900.8467">AefProfile</text><line style="stroke:#181818;stroke-width:0.5;" x1="1360.5" x2="1691.5" y1="912" y2="912"/><text fill="#000000" font-family="sans-serif" font-size="14" lengthAdjust="spacing" textLength="174" x="1365.5" y="928.9951">DataFormat dataFormat</text><text fill="#000000" font-family="sans-serif" font-size="14" lengthAdjust="spacing" textLength="140" x="1365.5" y="945.292">string domainName</text><text fill="#000000" font-family="sans-serif" font-size="14" lengthAdjust="spacing" textLength="321" x="1365.5" y="961.5889">[]InterfaceDescription interfaceDescriptions</text><text fill="#000000" font-family="sans-serif" font-size="14" lengthAdjust="spacing" textLength="127" x="1365.5" y="977.8857">Protocol protocol</text><text fill="#000000" font-family="sans-serif" font-size="14" lengthAdjust="spacing" textLength="247" x="1365.5" y="994.1826">[]SecurityMethod securityMethods</text><line style="stroke:#181818;stroke-width:0.5;" x1="1360.5" x2="1691.5" y1="1001.4844" y2="1001.4844"/><text fill="#000000" font-family="sans-serif" font-size="14" lengthAdjust="spacing" textLength="156" x="1365.5" y="1018.4795">string aefId (required)</text><text fill="#000000" font-family="sans-serif" font-size="14" lengthAdjust="spacing" textLength="201" x="1365.5" y="1034.7764">[]Version versions (required)</text></g><!--MD5=[a87be8aed8ee406f2aba06009a0ee87f]
class DataFormat--><g id="elem_DataFormat"><rect codeLine="56" fill="#F1F1F1" height="64.2969" id="DataFormat" rx="2.5" ry="2.5" style="stroke:#181818;stroke-width:0.5;" width="118" x="2176" y="1133"/><ellipse cx="2191" cy="1149" fill="#EB937F" rx="11" ry="11" style="stroke:#181818;stroke-width:1.0;"/><path d="M2189.7969,1149.875 L2191.25,1149.875 L2191.25,1149.9844 C2191.25,1150.3906 2191.2813,1150.5469 2191.3594,1150.7031 C2191.5156,1150.9531 2191.7969,1151.1094 2192.0938,1151.1094 C2192.3438,1151.1094 2192.6094,1150.9688 2192.7656,1150.75 C2192.8906,1150.5938 2192.9219,1150.4375 2192.9219,1149.9844 L2192.9219,1148.0625 C2192.9219,1147.9063 2192.9219,1147.8594 2192.9063,1147.7031 C2192.8438,1147.2344 2192.5313,1146.9219 2192.0781,1146.9219 C2191.8281,1146.9219 2191.5625,1147.0625 2191.3906,1147.2813 C2191.2813,1147.4531 2191.25,1147.6094 2191.25,1148.0625 L2191.25,1148.1875 L2189.7969,1148.1875 L2189.7969,1145.7813 L2193.7813,1145.7813 L2193.7813,1146.6406 C2193.7813,1147.0469 2193.8125,1147.2188 2193.8906,1147.375 C2194.0625,1147.625 2194.3438,1147.7813 2194.625,1147.7813 C2194.8906,1147.7813 2195.1563,1147.6406 2195.3281,1147.4219 C2195.4375,1147.25 2195.4688,1147.1094 2195.4688,1146.6406 L2195.4688,1144.0938 L2187.8438,1144.0938 C2187.4063,1144.0938 2187.2813,1144.1094 2187.125,1144.2031 C2186.875,1144.3594 2186.7188,1144.6563 2186.7188,1144.9375 C2186.7188,1145.2188 2186.8594,1145.4688 2187.0781,1145.6406 C2187.2344,1145.75 2187.4219,1145.7813 2187.8438,1145.7813 L2188.0938,1145.7813 L2188.0938,1152.2969 L2187.8438,1152.2969 C2187.4375,1152.2969 2187.2813,1152.3125 2187.125,1152.4219 C2186.875,1152.5938 2186.7188,1152.8594 2186.7188,1153.1563 C2186.7188,1153.4219 2186.8594,1153.6719 2187.0781,1153.8281 C2187.2188,1153.9531 2187.4531,1154 2187.8438,1154 L2195.8438,1154 L2195.8438,1151.4219 C2195.8438,1150.9844 2195.8125,1150.8438 2195.7344,1150.6875 C2195.5625,1150.4375 2195.2813,1150.2813 2195,1150.2813 C2194.7344,1150.2813 2194.4688,1150.3906 2194.2969,1150.6406 C2194.1875,1150.7969 2194.1563,1150.9375 2194.1563,1151.4219 L2194.1563,1152.2969 L2189.7969,1152.2969 L2189.7969,1149.875 Z " fill="#000000"/><text fill="#000000" font-family="sans-serif" font-size="14" lengthAdjust="spacing" textLength="86" x="2205" y="1153.8467">DataFormat</text><line style="stroke:#181818;stroke-width:0.5;" x1="2177" x2="2293" y1="1165" y2="1165"/><text fill="#000000" font-family="sans-serif" font-size="14" lengthAdjust="spacing" textLength="34" x="2182" y="1181.9951">JSON</text><line style="stroke:#181818;stroke-width:0.5;" x1="2177" x2="2293" y1="1189.2969" y2="1189.2969"/></g><!--MD5=[a0c27cfb527bdb20a6436baa93834728]
class Protocol--><g id="elem_Protocol"><rect codeLine="59" fill="#F1F1F1" height="80.5938" id="Protocol" rx="2.5" ry="2.5" style="stroke:#181818;stroke-width:0.5;" width="93" x="1373.5" y="1124.5"/><ellipse cx="1388.5" cy="1140.5" fill="#EB937F" rx="11" ry="11" style="stroke:#181818;stroke-width:1.0;"/><path d="M1387.2969,1141.375 L1388.75,1141.375 L1388.75,1141.4844 C1388.75,1141.8906 1388.7813,1142.0469 1388.8594,1142.2031 C1389.0156,1142.4531 1389.2969,1142.6094 1389.5938,1142.6094 C1389.8438,1142.6094 1390.1094,1142.4688 1390.2656,1142.25 C1390.3906,1142.0938 1390.4219,1141.9375 1390.4219,1141.4844 L1390.4219,1139.5625 C1390.4219,1139.4063 1390.4219,1139.3594 1390.4063,1139.2031 C1390.3438,1138.7344 1390.0313,1138.4219 1389.5781,1138.4219 C1389.3281,1138.4219 1389.0625,1138.5625 1388.8906,1138.7813 C1388.7813,1138.9531 1388.75,1139.1094 1388.75,1139.5625 L1388.75,1139.6875 L1387.2969,1139.6875 L1387.2969,1137.2813 L1391.2813,1137.2813 L1391.2813,1138.1406 C1391.2813,1138.5469 1391.3125,1138.7188 1391.3906,1138.875 C1391.5625,1139.125 1391.8438,1139.2813 1392.125,1139.2813 C1392.3906,1139.2813 1392.6563,1139.1406 1392.8281,1138.9219 C1392.9375,1138.75 1392.9688,1138.6094 1392.9688,1138.1406 L1392.9688,1135.5938 L1385.3438,1135.5938 C1384.9063,1135.5938 1384.7813,1135.6094 1384.625,1135.7031 C1384.375,1135.8594 1384.2188,1136.1563 1384.2188,1136.4375 C1384.2188,1136.7188 1384.3594,1136.9688 1384.5781,1137.1406 C1384.7344,1137.25 1384.9219,1137.2813 1385.3438,1137.2813 L1385.5938,1137.2813 L1385.5938,1143.7969 L1385.3438,1143.7969 C1384.9375,1143.7969 1384.7813,1143.8125 1384.625,1143.9219 C1384.375,1144.0938 1384.2188,1144.3594 1384.2188,1144.6563 C1384.2188,1144.9219 1384.3594,1145.1719 1384.5781,1145.3281 C1384.7188,1145.4531 1384.9531,1145.5 1385.3438,1145.5 L1393.3438,1145.5 L1393.3438,1142.9219 C1393.3438,1142.4844 1393.3125,1142.3438 1393.2344,1142.1875 C1393.0625,1141.9375 1392.7813,1141.7813 1392.5,1141.7813 C1392.2344,1141.7813 1391.9688,1141.8906 1391.7969,1142.1406 C1391.6875,1142.2969 1391.6563,1142.4375 1391.6563,1142.9219 L1391.6563,1143.7969 L1387.2969,1143.7969 L1387.2969,1141.375 Z " fill="#000000"/><text fill="#000000" font-family="sans-serif" font-size="14" lengthAdjust="spacing" textLength="61" x="1402.5" y="1145.3467">Protocol</text><line style="stroke:#181818;stroke-width:0.5;" x1="1374.5" x2="1465.5" y1="1156.5" y2="1156.5"/><text fill="#000000" font-family="sans-serif" font-size="14" lengthAdjust="spacing" textLength="69" x="1379.5" y="1173.4951">HTTP_1_1</text><text fill="#000000" font-family="sans-serif" font-size="14" lengthAdjust="spacing" textLength="52" x="1379.5" y="1189.792">HTTP_2</text><line style="stroke:#181818;stroke-width:0.5;" x1="1374.5" x2="1465.5" y1="1197.0938" y2="1197.0938"/></g><g id="elem_aefIdRel"><path d="M1385.5,735 L1385.5,775.2656 L1680.5,775.2656 L1680.5,745 L1670.5,735 L1385.5,735 " fill="#FEFFDD" style="stroke:#181818;stroke-width:0.5;"/><path d="M1670.5,735 L1670.5,745 L1680.5,745 L1670.5,735 " fill="#FEFFDD" style="stroke:#181818;stroke-width:1.0;"/><text fill="#000000" font-family="sans-serif" font-size="13" lengthAdjust="spacing" textLength="195" x="1391.5" y="752.0669">AefProfile::aefId should match</text><text fill="#000000" font-family="sans-serif" font-size="13" lengthAdjust="spacing" textLength="270" x="1395.5" y="767.1997">APIProviderFunctionDetails::apiProvFuncId</text></g><!--MD5=[5aca79d495961f73f43004d77eeece21]
class InterfaceDescription--><g id="elem_InterfaceDescription"><rect codeLine="66" fill="#F1F1F1" height="113.1875" id="InterfaceDescription" rx="2.5" ry="2.5" style="stroke:#181818;stroke-width:0.5;" width="259" x="1873.5" y="1109"/><ellipse cx="1923.75" cy="1125" fill="#F1F1F1" rx="11" ry="11" style="stroke:#181818;stroke-width:1.0;"/><path d="M1927.5313,1120.9688 C1927.5313,1120.5313 1927.5156,1120.3906 1927.4219,1120.2344 C1927.2813,1120 1927,1119.8438 1926.7031,1119.8438 C1926.3594,1119.8438 1926.2188,1119.9844 1926.0469,1120.4063 C1925.4531,1120.0313 1924.7031,1119.8438 1923.8281,1119.8438 C1921.7188,1119.8438 1920.1406,1121.1406 1920.1406,1122.8594 C1920.1406,1123.8281 1920.6719,1124.7344 1921.5313,1125.2188 C1922.0781,1125.5313 1922.625,1125.7031 1923.7344,1125.8906 C1924.8906,1126.0938 1925.1563,1126.1563 1925.5156,1126.3438 C1925.8906,1126.5469 1926.125,1126.8906 1926.125,1127.25 C1926.125,1127.9844 1925.1406,1128.5313 1923.8906,1128.5313 C1922.7656,1128.5313 1921.6875,1128.0469 1921.5156,1127.4375 C1921.3906,1126.9688 1921.3906,1126.9688 1921.2656,1126.8594 C1921.1094,1126.7031 1920.8906,1126.6094 1920.6563,1126.6094 C1920.375,1126.6094 1920.125,1126.7344 1919.9531,1126.9531 C1919.8438,1127.125 1919.7969,1127.3125 1919.7969,1127.7344 L1919.7969,1128.8594 C1919.7969,1129.625 1920.0781,1129.9844 1920.6719,1129.9844 C1920.9375,1129.9844 1921.0625,1129.9219 1921.3438,1129.5781 C1922.1875,1130.0156 1923.0781,1130.2344 1924,1130.2344 C1926.3281,1130.2344 1927.8906,1129.0469 1927.8906,1127.2813 C1927.8906,1126.3906 1927.5781,1125.7031 1926.8906,1125.1563 C1926.3594,1124.7344 1925.7188,1124.4844 1924.2344,1124.2188 C1922.9688,1123.9844 1922.875,1123.9531 1922.5469,1123.7813 C1922.1719,1123.5938 1921.9063,1123.2031 1921.9063,1122.8438 C1921.9063,1122.1094 1922.7656,1121.5469 1923.8281,1121.5469 C1924.8906,1121.5469 1925.7031,1122.0156 1925.8594,1122.6875 C1925.9688,1123.2344 1925.9688,1123.2344 1926.0938,1123.375 C1926.2344,1123.5 1926.4688,1123.6094 1926.7031,1123.6094 C1926.9688,1123.6094 1927.2188,1123.4688 1927.3906,1123.25 C1927.5,1123.0781 1927.5313,1122.9375 1927.5313,1122.4688 L1927.5313,1120.9688 Z " fill="#000000"/><text fill="#000000" font-family="sans-serif" font-size="14" lengthAdjust="spacing" textLength="150" x="1944.25" y="1129.8467">InterfaceDescription</text><line style="stroke:#181818;stroke-width:0.5;" x1="1874.5" x2="2131.5" y1="1141" y2="1141"/><text fill="#000000" font-family="sans-serif" font-size="14" lengthAdjust="spacing" textLength="133" x="1879.5" y="1157.9951">string ipv4Address</text><text fill="#000000" font-family="sans-serif" font-size="14" lengthAdjust="spacing" textLength="134" x="1879.5" y="1174.292">string ipv6Address</text><text fill="#000000" font-family="sans-serif" font-size="14" lengthAdjust="spacing" textLength="56" x="1879.5" y="1190.5889">int port</text><text fill="#000000" font-family="sans-serif" font-size="14" lengthAdjust="spacing" textLength="247" x="1879.5" y="1206.8857">[]SecurityMethod securityMethods</text><line style="stroke:#181818;stroke-width:0.5;" x1="1874.5" x2="2131.5" y1="1214.1875" y2="1214.1875"/></g><path d="M1502,1132.5 L1502,1187.8984 A0,0 0 0 0 1502,1187.8984 L1830,1187.8984 A0,0 0 0 0 1830,1187.8984 L1830,1164.1992 L1877.5,1202.0391 L1830,1156.1992 L1830,1142.5 L1820,1132.5 L1502,1132.5 A0,0 0 0 0 1502,1132.5 " fill="#FEFFDD" style="stroke:#181818;stroke-width:0.5;"/><path d="M1820,1132.5 L1820,1142.5 L1830,1142.5 L1820,1132.5 " fill="#FEFFDD" style="stroke:#181818;stroke-width:0.5;"/><text fill="#000000" font-family="sans-serif" font-size="13" lengthAdjust="spacing" textLength="292" x="1508" y="1149.5669">Security methods supported by the interface,</text><text fill="#000000" font-family="sans-serif" font-size="13" lengthAdjust="spacing" textLength="293" x="1508" y="1164.6997">it take precedence over the security methods</text><text fill="#000000" font-family="sans-serif" font-size="13" lengthAdjust="spacing" textLength="307" x="1508" y="1179.8325">provided in AefProfile, for this specific interface.</text><!--MD5=[1db584ee1b8127ea75535273dec2b4f2]
class Version--><g id="elem_Version"><rect codeLine="77" fill="#F1F1F1" height="113.1875" id="Version" rx="2.5" ry="2.5" style="stroke:#181818;stroke-width:0.5;" width="264" x="1029" y="1109"/><ellipse cx="1129.75" cy="1125" fill="#F1F1F1" rx="11" ry="11" style="stroke:#181818;stroke-width:1.0;"/><path d="M1133.5313,1120.9688 C1133.5313,1120.5313 1133.5156,1120.3906 1133.4219,1120.2344 C1133.2813,1120 1133,1119.8438 1132.7031,1119.8438 C1132.3594,1119.8438 1132.2188,1119.9844 1132.0469,1120.4063 C1131.4531,1120.0313 1130.7031,1119.8438 1129.8281,1119.8438 C1127.7188,1119.8438 1126.1406,1121.1406 1126.1406,1122.8594 C1126.1406,1123.8281 1126.6719,1124.7344 1127.5313,1125.2188 C1128.0781,1125.5313 1128.625,1125.7031 1129.7344,1125.8906 C1130.8906,1126.0938 1131.1563,1126.1563 1131.5156,1126.3438 C1131.8906,1126.5469 1132.125,1126.8906 1132.125,1127.25 C1132.125,1127.9844 1131.1406,1128.5313 1129.8906,1128.5313 C1128.7656,1128.5313 1127.6875,1128.0469 1127.5156,1127.4375 C1127.3906,1126.9688 1127.3906,1126.9688 1127.2656,1126.8594 C1127.1094,1126.7031 1126.8906,1126.6094 1126.6563,1126.6094 C1126.375,1126.6094 1126.125,1126.7344 1125.9531,1126.9531 C1125.8438,1127.125 1125.7969,1127.3125 1125.7969,1127.7344 L1125.7969,1128.8594 C1125.7969,1129.625 1126.0781,1129.9844 1126.6719,1129.9844 C1126.9375,1129.9844 1127.0625,1129.9219 1127.3438,1129.5781 C1128.1875,1130.0156 1129.0781,1130.2344 1130,1130.2344 C1132.3281,1130.2344 1133.8906,1129.0469 1133.8906,1127.2813 C1133.8906,1126.3906 1133.5781,1125.7031 1132.8906,1125.1563 C1132.3594,1124.7344 1131.7188,1124.4844 1130.2344,1124.2188 C1128.9688,1123.9844 1128.875,1123.9531 1128.5469,1123.7813 C1128.1719,1123.5938 1127.9063,1123.2031 1127.9063,1122.8438 C1127.9063,1122.1094 1128.7656,1121.5469 1129.8281,1121.5469 C1130.8906,1121.5469 1131.7031,1122.0156 1131.8594,1122.6875 C1131.9688,1123.2344 1131.9688,1123.2344 1132.0938,1123.375 C1132.2344,1123.5 1132.4688,1123.6094 1132.7031,1123.6094 C1132.9688,1123.6094 1133.2188,1123.4688 1133.3906,1123.25 C1133.5,1123.0781 1133.5313,1122.9375 1133.5313,1122.4688 L1133.5313,1120.9688 Z " fill="#000000"/><text fill="#000000" font-family="sans-serif" font-size="14" lengthAdjust="spacing" textLength="54" x="1150.25" y="1129.8467">Version</text><line style="stroke:#181818;stroke-width:0.5;" x1="1030" x2="1292" y1="1141" y2="1141"/><text fill="#000000" font-family="sans-serif" font-size="14" lengthAdjust="spacing" textLength="252" x="1035" y="1157.9951">[]CustomOperation custOperations</text><text fill="#000000" font-family="sans-serif" font-size="14" lengthAdjust="spacing" textLength="120" x="1035" y="1174.292">DateTime expiry</text><text fill="#000000" font-family="sans-serif" font-size="14" lengthAdjust="spacing" textLength="149" x="1035" y="1190.5889">[]Resource resources</text><line style="stroke:#181818;stroke-width:0.5;" x1="1030" x2="1292" y1="1197.8906" y2="1197.8906"/><text fill="#000000" font-family="sans-serif" font-size="14" lengthAdjust="spacing" textLength="196" x="1035" y="1214.8857">string apiVersion (required)</text></g><!--MD5=[e75b1af205241aa72e7f52fa8d9ad4e8]
class CustomOperation--><g id="elem_CustomOperation"><rect codeLine="83" fill="#F1F1F1" height="113.1875" id="CustomOperation" rx="2.5" ry="2.5" style="stroke:#181818;stroke-width:0.5;" width="320" x="1029" y="1290"/><ellipse cx="1120.75" cy="1306" fill="#F1F1F1" rx="11" ry="11" style="stroke:#181818;stroke-width:1.0;"/><path d="M1124.5313,1301.9688 C1124.5313,1301.5313 1124.5156,1301.3906 1124.4219,1301.2344 C1124.2813,1301 1124,1300.8438 1123.7031,1300.8438 C1123.3594,1300.8438 1123.2188,1300.9844 1123.0469,1301.4063 C1122.4531,1301.0313 1121.7031,1300.8438 1120.8281,1300.8438 C1118.7188,1300.8438 1117.1406,1302.1406 1117.1406,1303.8594 C1117.1406,1304.8281 1117.6719,1305.7344 1118.5313,1306.2188 C1119.0781,1306.5313 1119.625,1306.7031 1120.7344,1306.8906 C1121.8906,1307.0938 1122.1563,1307.1563 1122.5156,1307.3438 C1122.8906,1307.5469 1123.125,1307.8906 1123.125,1308.25 C1123.125,1308.9844 1122.1406,1309.5313 1120.8906,1309.5313 C1119.7656,1309.5313 1118.6875,1309.0469 1118.5156,1308.4375 C1118.3906,1307.9688 1118.3906,1307.9688 1118.2656,1307.8594 C1118.1094,1307.7031 1117.8906,1307.6094 1117.6563,1307.6094 C1117.375,1307.6094 1117.125,1307.7344 1116.9531,1307.9531 C1116.8438,1308.125 1116.7969,1308.3125 1116.7969,1308.7344 L1116.7969,1309.8594 C1116.7969,1310.625 1117.0781,1310.9844 1117.6719,1310.9844 C1117.9375,1310.9844 1118.0625,1310.9219 1118.3438,1310.5781 C1119.1875,1311.0156 1120.0781,1311.2344 1121,1311.2344 C1123.3281,1311.2344 1124.8906,1310.0469 1124.8906,1308.2813 C1124.8906,1307.3906 1124.5781,1306.7031 1123.8906,1306.1563 C1123.3594,1305.7344 1122.7188,1305.4844 1121.2344,1305.2188 C1119.9688,1304.9844 1119.875,1304.9531 1119.5469,1304.7813 C1119.1719,1304.5938 1118.9063,1304.2031 1118.9063,1303.8438 C1118.9063,1303.1094 1119.7656,1302.5469 1120.8281,1302.5469 C1121.8906,1302.5469 1122.7031,1303.0156 1122.8594,1303.6875 C1122.9688,1304.2344 1122.9688,1304.2344 1123.0938,1304.375 C1123.2344,1304.5 1123.4688,1304.6094 1123.7031,1304.6094 C1123.9688,1304.6094 1124.2188,1304.4688 1124.3906,1304.25 C1124.5,1304.0781 1124.5313,1303.9375 1124.5313,1303.4688 L1124.5313,1301.9688 Z " fill="#000000"/><text fill="#000000" font-family="sans-serif" font-size="14" lengthAdjust="spacing" textLength="128" x="1141.25" y="1310.8467">CustomOperation</text><line style="stroke:#181818;stroke-width:0.5;" x1="1030" x2="1348" y1="1322" y2="1322"/><text fill="#000000" font-family="sans-serif" font-size="14" lengthAdjust="spacing" textLength="128" x="1035" y="1338.9951">string description</text><text fill="#000000" font-family="sans-serif" font-size="14" lengthAdjust="spacing" textLength="165" x="1035" y="1355.292">[]Operation operations</text><line style="stroke:#181818;stroke-width:0.5;" x1="1030" x2="1348" y1="1362.5938" y2="1362.5938"/><text fill="#000000" font-family="sans-serif" font-size="14" lengthAdjust="spacing" textLength="308" x="1035" y="1379.5889">CommunicationType commType (required)</text><text fill="#000000" font-family="sans-serif" font-size="14" lengthAdjust="spacing" textLength="212" x="1035" y="1395.8857">string custOpName (required)</text></g><!--MD5=[cca5d97aaf46870920fae66c9bd85cdd]
class Operation--><g id="elem_Operation"><rect codeLine="89" fill="#F1F1F1" height="129.4844" id="Operation" rx="2.5" ry="2.5" style="stroke:#181818;stroke-width:0.5;" width="105" x="1136.5" y="1467"/><ellipse cx="1151.5" cy="1483" fill="#EB937F" rx="11" ry="11" style="stroke:#181818;stroke-width:1.0;"/><path d="M1150.2969,1483.875 L1151.75,1483.875 L1151.75,1483.9844 C1151.75,1484.3906 1151.7813,1484.5469 1151.8594,1484.7031 C1152.0156,1484.9531 1152.2969,1485.1094 1152.5938,1485.1094 C1152.8438,1485.1094 1153.1094,1484.9688 1153.2656,1484.75 C1153.3906,1484.5938 1153.4219,1484.4375 1153.4219,1483.9844 L1153.4219,1482.0625 C1153.4219,1481.9063 1153.4219,1481.8594 1153.4063,1481.7031 C1153.3438,1481.2344 1153.0313,1480.9219 1152.5781,1480.9219 C1152.3281,1480.9219 1152.0625,1481.0625 1151.8906,1481.2813 C1151.7813,1481.4531 1151.75,1481.6094 1151.75,1482.0625 L1151.75,1482.1875 L1150.2969,1482.1875 L1150.2969,1479.7813 L1154.2813,1479.7813 L1154.2813,1480.6406 C1154.2813,1481.0469 1154.3125,1481.2188 1154.3906,1481.375 C1154.5625,1481.625 1154.8438,1481.7813 1155.125,1481.7813 C1155.3906,1481.7813 1155.6563,1481.6406 1155.8281,1481.4219 C1155.9375,1481.25 1155.9688,1481.1094 1155.9688,1480.6406 L1155.9688,1478.0938 L1148.3438,1478.0938 C1147.9063,1478.0938 1147.7813,1478.1094 1147.625,1478.2031 C1147.375,1478.3594 1147.2188,1478.6563 1147.2188,1478.9375 C1147.2188,1479.2188 1147.3594,1479.4688 1147.5781,1479.6406 C1147.7344,1479.75 1147.9219,1479.7813 1148.3438,1479.7813 L1148.5938,1479.7813 L1148.5938,1486.2969 L1148.3438,1486.2969 C1147.9375,1486.2969 1147.7813,1486.3125 1147.625,1486.4219 C1147.375,1486.5938 1147.2188,1486.8594 1147.2188,1487.1563 C1147.2188,1487.4219 1147.3594,1487.6719 1147.5781,1487.8281 C1147.7188,1487.9531 1147.9531,1488 1148.3438,1488 L1156.3438,1488 L1156.3438,1485.4219 C1156.3438,1484.9844 1156.3125,1484.8438 1156.2344,1484.6875 C1156.0625,1484.4375 1155.7813,1484.2813 1155.5,1484.2813 C1155.2344,1484.2813 1154.9688,1484.3906 1154.7969,1484.6406 C1154.6875,1484.7969 1154.6563,1484.9375 1154.6563,1485.4219 L1154.6563,1486.2969 L1150.2969,1486.2969 L1150.2969,1483.875 Z " fill="#000000"/><text fill="#000000" font-family="sans-serif" font-size="14" lengthAdjust="spacing" textLength="73" x="1165.5" y="1487.8467">Operation</text><line style="stroke:#181818;stroke-width:0.5;" x1="1137.5" x2="1240.5" y1="1499" y2="1499"/><text fill="#000000" font-family="sans-serif" font-size="14" lengthAdjust="spacing" textLength="29" x="1142.5" y="1515.9951">GET</text><text fill="#000000" font-family="sans-serif" font-size="14" lengthAdjust="spacing" textLength="38" x="1142.5" y="1532.292">POST</text><text fill="#000000" font-family="sans-serif" font-size="14" lengthAdjust="spacing" textLength="27" x="1142.5" y="1548.5889">PUT</text><text fill="#000000" font-family="sans-serif" font-size="14" lengthAdjust="spacing" textLength="48" x="1142.5" y="1564.8857">PATCH</text><text fill="#000000" font-family="sans-serif" font-size="14" lengthAdjust="spacing" textLength="55" x="1142.5" y="1581.1826">DELETE</text><line style="stroke:#181818;stroke-width:0.5;" x1="1137.5" x2="1240.5" y1="1588.4844" y2="1588.4844"/></g><!--MD5=[570c463b4c02d4ba2ef3d0ee1cd6446c]
class SecurityMethod--><g id="elem_SecurityMethod"><rect codeLine="96" fill="#F1F1F1" height="96.8906" id="SecurityMethod" rx="2.5" ry="2.5" style="stroke:#181818;stroke-width:0.5;" width="146" x="1805" y="1297.5"/><ellipse cx="1820" cy="1313.5" fill="#EB937F" rx="11" ry="11" style="stroke:#181818;stroke-width:1.0;"/><path d="M1818.7969,1314.375 L1820.25,1314.375 L1820.25,1314.4844 C1820.25,1314.8906 1820.2813,1315.0469 1820.3594,1315.2031 C1820.5156,1315.4531 1820.7969,1315.6094 1821.0938,1315.6094 C1821.3438,1315.6094 1821.6094,1315.4688 1821.7656,1315.25 C1821.8906,1315.0938 1821.9219,1314.9375 1821.9219,1314.4844 L1821.9219,1312.5625 C1821.9219,1312.4063 1821.9219,1312.3594 1821.9063,1312.2031 C1821.8438,1311.7344 1821.5313,1311.4219 1821.0781,1311.4219 C1820.8281,1311.4219 1820.5625,1311.5625 1820.3906,1311.7813 C1820.2813,1311.9531 1820.25,1312.1094 1820.25,1312.5625 L1820.25,1312.6875 L1818.7969,1312.6875 L1818.7969,1310.2813 L1822.7813,1310.2813 L1822.7813,1311.1406 C1822.7813,1311.5469 1822.8125,1311.7188 1822.8906,1311.875 C1823.0625,1312.125 1823.3438,1312.2813 1823.625,1312.2813 C1823.8906,1312.2813 1824.1563,1312.1406 1824.3281,1311.9219 C1824.4375,1311.75 1824.4688,1311.6094 1824.4688,1311.1406 L1824.4688,1308.5938 L1816.8438,1308.5938 C1816.4063,1308.5938 1816.2813,1308.6094 1816.125,1308.7031 C1815.875,1308.8594 1815.7188,1309.1563 1815.7188,1309.4375 C1815.7188,1309.7188 1815.8594,1309.9688 1816.0781,1310.1406 C1816.2344,1310.25 1816.4219,1310.2813 1816.8438,1310.2813 L1817.0938,1310.2813 L1817.0938,1316.7969 L1816.8438,1316.7969 C1816.4375,1316.7969 1816.2813,1316.8125 1816.125,1316.9219 C1815.875,1317.0938 1815.7188,1317.3594 1815.7188,1317.6563 C1815.7188,1317.9219 1815.8594,1318.1719 1816.0781,1318.3281 C1816.2188,1318.4531 1816.4531,1318.5 1816.8438,1318.5 L1824.8438,1318.5 L1824.8438,1315.9219 C1824.8438,1315.4844 1824.8125,1315.3438 1824.7344,1315.1875 C1824.5625,1314.9375 1824.2813,1314.7813 1824,1314.7813 C1823.7344,1314.7813 1823.4688,1314.8906 1823.2969,1315.1406 C1823.1875,1315.2969 1823.1563,1315.4375 1823.1563,1315.9219 L1823.1563,1316.7969 L1818.7969,1316.7969 L1818.7969,1314.375 Z " fill="#000000"/><text fill="#000000" font-family="sans-serif" font-size="14" lengthAdjust="spacing" textLength="114" x="1834" y="1318.3467">SecurityMethod</text><line style="stroke:#181818;stroke-width:0.5;" x1="1806" x2="1950" y1="1329.5" y2="1329.5"/><text fill="#000000" font-family="sans-serif" font-size="14" lengthAdjust="spacing" textLength="28" x="1811" y="1346.4951">PSK</text><text fill="#000000" font-family="sans-serif" font-size="14" lengthAdjust="spacing" textLength="23" x="1811" y="1362.792">PKI</text><text fill="#000000" font-family="sans-serif" font-size="14" lengthAdjust="spacing" textLength="49" x="1811" y="1379.0889">OAUTH</text><line style="stroke:#181818;stroke-width:0.5;" x1="1806" x2="1950" y1="1386.3906" y2="1386.3906"/></g><!--MD5=[6b13f1b330d33795af281e5c1dfe1e98]
class Resource--><g id="elem_Resource"><rect codeLine="101" fill="#F1F1F1" height="113.1875" id="Resource" rx="2.5" ry="2.5" style="stroke:#181818;stroke-width:0.5;" width="320" x="1400" y="1290"/><ellipse cx="1522.75" cy="1306" fill="#F1F1F1" rx="11" ry="11" style="stroke:#181818;stroke-width:1.0;"/><path d="M1526.5313,1301.9688 C1526.5313,1301.5313 1526.5156,1301.3906 1526.4219,1301.2344 C1526.2813,1301 1526,1300.8438 1525.7031,1300.8438 C1525.3594,1300.8438 1525.2188,1300.9844 1525.0469,1301.4063 C1524.4531,1301.0313 1523.7031,1300.8438 1522.8281,1300.8438 C1520.7188,1300.8438 1519.1406,1302.1406 1519.1406,1303.8594 C1519.1406,1304.8281 1519.6719,1305.7344 1520.5313,1306.2188 C1521.0781,1306.5313 1521.625,1306.7031 1522.7344,1306.8906 C1523.8906,1307.0938 1524.1563,1307.1563 1524.5156,1307.3438 C1524.8906,1307.5469 1525.125,1307.8906 1525.125,1308.25 C1525.125,1308.9844 1524.1406,1309.5313 1522.8906,1309.5313 C1521.7656,1309.5313 1520.6875,1309.0469 1520.5156,1308.4375 C1520.3906,1307.9688 1520.3906,1307.9688 1520.2656,1307.8594 C1520.1094,1307.7031 1519.8906,1307.6094 1519.6563,1307.6094 C1519.375,1307.6094 1519.125,1307.7344 1518.9531,1307.9531 C1518.8438,1308.125 1518.7969,1308.3125 1518.7969,1308.7344 L1518.7969,1309.8594 C1518.7969,1310.625 1519.0781,1310.9844 1519.6719,1310.9844 C1519.9375,1310.9844 1520.0625,1310.9219 1520.3438,1310.5781 C1521.1875,1311.0156 1522.0781,1311.2344 1523,1311.2344 C1525.3281,1311.2344 1526.8906,1310.0469 1526.8906,1308.2813 C1526.8906,1307.3906 1526.5781,1306.7031 1525.8906,1306.1563 C1525.3594,1305.7344 1524.7188,1305.4844 1523.2344,1305.2188 C1521.9688,1304.9844 1521.875,1304.9531 1521.5469,1304.7813 C1521.1719,1304.5938 1520.9063,1304.2031 1520.9063,1303.8438 C1520.9063,1303.1094 1521.7656,1302.5469 1522.8281,1302.5469 C1523.8906,1302.5469 1524.7031,1303.0156 1524.8594,1303.6875 C1524.9688,1304.2344 1524.9688,1304.2344 1525.0938,1304.375 C1525.2344,1304.5 1525.4688,1304.6094 1525.7031,1304.6094 C1525.9688,1304.6094 1526.2188,1304.4688 1526.3906,1304.25 C1526.5,1304.0781 1526.5313,1303.9375 1526.5313,1303.4688 L1526.5313,1301.9688 Z " fill="#000000"/><text fill="#000000" font-family="sans-serif" font-size="14" lengthAdjust="spacing" textLength="66" x="1543.25" y="1310.8467">Resource</text><line style="stroke:#181818;stroke-width:0.5;" x1="1401" x2="1719" y1="1322" y2="1322"/><text fill="#000000" font-family="sans-serif" font-size="14" lengthAdjust="spacing" textLength="128" x="1406" y="1338.9951">string description</text><line style="stroke:#181818;stroke-width:0.5;" x1="1401" x2="1719" y1="1346.2969" y2="1346.2969"/><text fill="#000000" font-family="sans-serif" font-size="14" lengthAdjust="spacing" textLength="223" x="1406" y="1363.292">string resourceName (required)</text><text fill="#000000" font-family="sans-serif" font-size="14" lengthAdjust="spacing" textLength="138" x="1406" y="1379.5889">string uri (required)</text><text fill="#000000" font-family="sans-serif" font-size="14" lengthAdjust="spacing" textLength="308" x="1406" y="1395.8857">CommunicationType commType (required)</text></g><!--MD5=[8be1b8710176a693b32e6a2f85736b40]
class CommunicationType--><g id="elem_CommunicationType"><rect codeLine="107" fill="#F1F1F1" height="80.5938" id="CommunicationType" rx="2.5" ry="2.5" style="stroke:#181818;stroke-width:0.5;" width="181" x="1324.5" y="1491"/><ellipse cx="1339.5" cy="1507" fill="#EB937F" rx="11" ry="11" style="stroke:#181818;stroke-width:1.0;"/><path d="M1338.2969,1507.875 L1339.75,1507.875 L1339.75,1507.9844 C1339.75,1508.3906 1339.7813,1508.5469 1339.8594,1508.7031 C1340.0156,1508.9531 1340.2969,1509.1094 1340.5938,1509.1094 C1340.8438,1509.1094 1341.1094,1508.9688 1341.2656,1508.75 C1341.3906,1508.5938 1341.4219,1508.4375 1341.4219,1507.9844 L1341.4219,1506.0625 C1341.4219,1505.9063 1341.4219,1505.8594 1341.4063,1505.7031 C1341.3438,1505.2344 1341.0313,1504.9219 1340.5781,1504.9219 C1340.3281,1504.9219 1340.0625,1505.0625 1339.8906,1505.2813 C1339.7813,1505.4531 1339.75,1505.6094 1339.75,1506.0625 L1339.75,1506.1875 L1338.2969,1506.1875 L1338.2969,1503.7813 L1342.2813,1503.7813 L1342.2813,1504.6406 C1342.2813,1505.0469 1342.3125,1505.2188 1342.3906,1505.375 C1342.5625,1505.625 1342.8438,1505.7813 1343.125,1505.7813 C1343.3906,1505.7813 1343.6563,1505.6406 1343.8281,1505.4219 C1343.9375,1505.25 1343.9688,1505.1094 1343.9688,1504.6406 L1343.9688,1502.0938 L1336.3438,1502.0938 C1335.9063,1502.0938 1335.7813,1502.1094 1335.625,1502.2031 C1335.375,1502.3594 1335.2188,1502.6563 1335.2188,1502.9375 C1335.2188,1503.2188 1335.3594,1503.4688 1335.5781,1503.6406 C1335.7344,1503.75 1335.9219,1503.7813 1336.3438,1503.7813 L1336.5938,1503.7813 L1336.5938,1510.2969 L1336.3438,1510.2969 C1335.9375,1510.2969 1335.7813,1510.3125 1335.625,1510.4219 C1335.375,1510.5938 1335.2188,1510.8594 1335.2188,1511.1563 C1335.2188,1511.4219 1335.3594,1511.6719 1335.5781,1511.8281 C1335.7188,1511.9531 1335.9531,1512 1336.3438,1512 L1344.3438,1512 L1344.3438,1509.4219 C1344.3438,1508.9844 1344.3125,1508.8438 1344.2344,1508.6875 C1344.0625,1508.4375 1343.7813,1508.2813 1343.5,1508.2813 C1343.2344,1508.2813 1342.9688,1508.3906 1342.7969,1508.6406 C1342.6875,1508.7969 1342.6563,1508.9375 1342.6563,1509.4219 L1342.6563,1510.2969 L1338.2969,1510.2969 L1338.2969,1507.875 Z " fill="#000000"/><text fill="#000000" font-family="sans-serif" font-size="14" lengthAdjust="spacing" textLength="149" x="1353.5" y="1511.8467">CommunicationType</text><line style="stroke:#181818;stroke-width:0.5;" x1="1325.5" x2="1504.5" y1="1523" y2="1523"/><text fill="#000000" font-family="sans-serif" font-size="14" lengthAdjust="spacing" textLength="149" x="1330.5" y="1539.9951">REQUEST_RESPONSE</text><text fill="#000000" font-family="sans-serif" font-size="14" lengthAdjust="spacing" textLength="138" x="1330.5" y="1556.292">SUBSCRIBE_NOTIFY</text><line style="stroke:#181818;stroke-width:0.5;" x1="1325.5" x2="1504.5" y1="1563.5938" y2="1563.5938"/></g><!--MD5=[0afb30f140d7a68d8214ba691286e74e]
class APIInvokerEnrolmentDetails--><g id="elem_APIInvokerEnrolmentDetails"><rect codeLine="126" fill="#F1F1F1" height="113.1875" id="APIInvokerEnrolmentDetails" rx="2.5" ry="2.5" style="stroke:#181818;stroke-width:0.5;" width="426" x="2358" y="451"/><ellipse cx="2465.25" cy="467" fill="#F1F1F1" rx="11" ry="11" style="stroke:#181818;stroke-width:1.0;"/><path d="M2469.0313,462.9688 C2469.0313,462.5313 2469.0156,462.3906 2468.9219,462.2344 C2468.7813,462 2468.5,461.8438 2468.2031,461.8438 C2467.8594,461.8438 2467.7188,461.9844 2467.5469,462.4063 C2466.9531,462.0313 2466.2031,461.8438 2465.3281,461.8438 C2463.2188,461.8438 2461.6406,463.1406 2461.6406,464.8594 C2461.6406,465.8281 2462.1719,466.7344 2463.0313,467.2188 C2463.5781,467.5313 2464.125,467.7031 2465.2344,467.8906 C2466.3906,468.0938 2466.6563,468.1563 2467.0156,468.3438 C2467.3906,468.5469 2467.625,468.8906 2467.625,469.25 C2467.625,469.9844 2466.6406,470.5313 2465.3906,470.5313 C2464.2656,470.5313 2463.1875,470.0469 2463.0156,469.4375 C2462.8906,468.9688 2462.8906,468.9688 2462.7656,468.8594 C2462.6094,468.7031 2462.3906,468.6094 2462.1563,468.6094 C2461.875,468.6094 2461.625,468.7344 2461.4531,468.9531 C2461.3438,469.125 2461.2969,469.3125 2461.2969,469.7344 L2461.2969,470.8594 C2461.2969,471.625 2461.5781,471.9844 2462.1719,471.9844 C2462.4375,471.9844 2462.5625,471.9219 2462.8438,471.5781 C2463.6875,472.0156 2464.5781,472.2344 2465.5,472.2344 C2467.8281,472.2344 2469.3906,471.0469 2469.3906,469.2813 C2469.3906,468.3906 2469.0781,467.7031 2468.3906,467.1563 C2467.8594,466.7344 2467.2188,466.4844 2465.7344,466.2188 C2464.4688,465.9844 2464.375,465.9531 2464.0469,465.7813 C2463.6719,465.5938 2463.4063,465.2031 2463.4063,464.8438 C2463.4063,464.1094 2464.2656,463.5469 2465.3281,463.5469 C2466.3906,463.5469 2467.2031,464.0156 2467.3594,464.6875 C2467.4688,465.2344 2467.4688,465.2344 2467.5938,465.375 C2467.7344,465.5 2467.9688,465.6094 2468.2031,465.6094 C2468.4688,465.6094 2468.7188,465.4688 2468.8906,465.25 C2469,465.0781 2469.0313,464.9375 2469.0313,464.4688 L2469.0313,462.9688 Z " fill="#000000"/><text fill="#000000" font-family="sans-serif" font-size="14" lengthAdjust="spacing" textLength="203" x="2485.75" y="471.8467">APIInvokerEnrolmentDetails</text><line style="stroke:#181818;stroke-width:0.5;" x1="2359" x2="2783" y1="483" y2="483"/><text fill="#000000" font-family="sans-serif" font-size="14" lengthAdjust="spacing" textLength="135" x="2364" y="499.9951">string apiInvokerId</text><text fill="#000000" font-family="sans-serif" font-size="14" lengthAdjust="spacing" textLength="207" x="2364" y="516.292">string apiInvokerInformation</text><text fill="#000000" font-family="sans-serif" font-size="14" lengthAdjust="spacing" textLength="101" x="2364" y="532.5889">APIList apiList</text><line style="stroke:#181818;stroke-width:0.5;" x1="2359" x2="2783" y1="539.8906" y2="539.8906"/><text fill="#000000" font-family="sans-serif" font-size="14" lengthAdjust="spacing" textLength="414" x="2364" y="556.8857">OnboardingInformation onboardingInformation (required)</text></g><!--MD5=[7129722ced8854c69e86ed0d62e63764]
class OnboardingInformation--><g id="elem_OnboardingInformation"><rect codeLine="132" fill="#F1F1F1" height="96.8906" id="OnboardingInformation" rx="2.5" ry="2.5" style="stroke:#181818;stroke-width:0.5;" width="280" x="2489" y="706.5"/><ellipse cx="2540.25" cy="722.5" fill="#F1F1F1" rx="11" ry="11" style="stroke:#181818;stroke-width:1.0;"/><path d="M2544.0313,718.4688 C2544.0313,718.0313 2544.0156,717.8906 2543.9219,717.7344 C2543.7813,717.5 2543.5,717.3438 2543.2031,717.3438 C2542.8594,717.3438 2542.7188,717.4844 2542.5469,717.9063 C2541.9531,717.5313 2541.2031,717.3438 2540.3281,717.3438 C2538.2188,717.3438 2536.6406,718.6406 2536.6406,720.3594 C2536.6406,721.3281 2537.1719,722.2344 2538.0313,722.7188 C2538.5781,723.0313 2539.125,723.2031 2540.2344,723.3906 C2541.3906,723.5938 2541.6563,723.6563 2542.0156,723.8438 C2542.3906,724.0469 2542.625,724.3906 2542.625,724.75 C2542.625,725.4844 2541.6406,726.0313 2540.3906,726.0313 C2539.2656,726.0313 2538.1875,725.5469 2538.0156,724.9375 C2537.8906,724.4688 2537.8906,724.4688 2537.7656,724.3594 C2537.6094,724.2031 2537.3906,724.1094 2537.1563,724.1094 C2536.875,724.1094 2536.625,724.2344 2536.4531,724.4531 C2536.3438,724.625 2536.2969,724.8125 2536.2969,725.2344 L2536.2969,726.3594 C2536.2969,727.125 2536.5781,727.4844 2537.1719,727.4844 C2537.4375,727.4844 2537.5625,727.4219 2537.8438,727.0781 C2538.6875,727.5156 2539.5781,727.7344 2540.5,727.7344 C2542.8281,727.7344 2544.3906,726.5469 2544.3906,724.7813 C2544.3906,723.8906 2544.0781,723.2031 2543.3906,722.6563 C2542.8594,722.2344 2542.2188,721.9844 2540.7344,721.7188 C2539.4688,721.4844 2539.375,721.4531 2539.0469,721.2813 C2538.6719,721.0938 2538.4063,720.7031 2538.4063,720.3438 C2538.4063,719.6094 2539.2656,719.0469 2540.3281,719.0469 C2541.3906,719.0469 2542.2031,719.5156 2542.3594,720.1875 C2542.4688,720.7344 2542.4688,720.7344 2542.5938,720.875 C2542.7344,721 2542.9688,721.1094 2543.2031,721.1094 C2543.4688,721.1094 2543.7188,720.9688 2543.8906,720.75 C2544,720.5781 2544.0313,720.4375 2544.0313,719.9688 L2544.0313,718.4688 Z " fill="#000000"/><text fill="#000000" font-family="sans-serif" font-size="14" lengthAdjust="spacing" textLength="169" x="2560.75" y="727.3467">OnboardingInformation</text><line style="stroke:#181818;stroke-width:0.5;" x1="2490" x2="2768" y1="738.5" y2="738.5"/><text fill="#000000" font-family="sans-serif" font-size="14" lengthAdjust="spacing" textLength="200" x="2495" y="755.4951">string apiInvokerCertificate</text><text fill="#000000" font-family="sans-serif" font-size="14" lengthAdjust="spacing" textLength="176" x="2495" y="771.792">string onboardingSecret</text><line style="stroke:#181818;stroke-width:0.5;" x1="2490" x2="2768" y1="779.0938" y2="779.0938"/><text fill="#000000" font-family="sans-serif" font-size="14" lengthAdjust="spacing" textLength="268" x="2495" y="796.0889">string ApiInvokerPublicKey (required)</text></g><!--MD5=[2cefccec3b7d9b8294bd05290c9a63b9]
class DiscoveredAPIs--><g id="elem_DiscoveredAPIs"><rect codeLine="148" fill="#F1F1F1" height="64.2969" id="DiscoveredAPIs" rx="2.5" ry="2.5" style="stroke:#181818;stroke-width:0.5;" width="351" x="1939.5" y="69"/><ellipse cx="2055.75" cy="85" fill="#F1F1F1" rx="11" ry="11" style="stroke:#181818;stroke-width:1.0;"/><path d="M2059.5313,80.9688 C2059.5313,80.5313 2059.5156,80.3906 2059.4219,80.2344 C2059.2813,80 2059,79.8438 2058.7031,79.8438 C2058.3594,79.8438 2058.2188,79.9844 2058.0469,80.4063 C2057.4531,80.0313 2056.7031,79.8438 2055.8281,79.8438 C2053.7188,79.8438 2052.1406,81.1406 2052.1406,82.8594 C2052.1406,83.8281 2052.6719,84.7344 2053.5313,85.2188 C2054.0781,85.5313 2054.625,85.7031 2055.7344,85.8906 C2056.8906,86.0938 2057.1563,86.1563 2057.5156,86.3438 C2057.8906,86.5469 2058.125,86.8906 2058.125,87.25 C2058.125,87.9844 2057.1406,88.5313 2055.8906,88.5313 C2054.7656,88.5313 2053.6875,88.0469 2053.5156,87.4375 C2053.3906,86.9688 2053.3906,86.9688 2053.2656,86.8594 C2053.1094,86.7031 2052.8906,86.6094 2052.6563,86.6094 C2052.375,86.6094 2052.125,86.7344 2051.9531,86.9531 C2051.8438,87.125 2051.7969,87.3125 2051.7969,87.7344 L2051.7969,88.8594 C2051.7969,89.625 2052.0781,89.9844 2052.6719,89.9844 C2052.9375,89.9844 2053.0625,89.9219 2053.3438,89.5781 C2054.1875,90.0156 2055.0781,90.2344 2056,90.2344 C2058.3281,90.2344 2059.8906,89.0469 2059.8906,87.2813 C2059.8906,86.3906 2059.5781,85.7031 2058.8906,85.1563 C2058.3594,84.7344 2057.7188,84.4844 2056.2344,84.2188 C2054.9688,83.9844 2054.875,83.9531 2054.5469,83.7813 C2054.1719,83.5938 2053.9063,83.2031 2053.9063,82.8438 C2053.9063,82.1094 2054.7656,81.5469 2055.8281,81.5469 C2056.8906,81.5469 2057.7031,82.0156 2057.8594,82.6875 C2057.9688,83.2344 2057.9688,83.2344 2058.0938,83.375 C2058.2344,83.5 2058.4688,83.6094 2058.7031,83.6094 C2058.9688,83.6094 2059.2188,83.4688 2059.3906,83.25 C2059.5,83.0781 2059.5313,82.9375 2059.5313,82.4688 L2059.5313,80.9688 Z " fill="#000000"/><text fill="#000000" font-family="sans-serif" font-size="14" lengthAdjust="spacing" textLength="110" x="2076.25" y="89.8467">DiscoveredAPIs</text><line style="stroke:#181818;stroke-width:0.5;" x1="1940.5" x2="2289.5" y1="101" y2="101"/><text fill="#000000" font-family="sans-serif" font-size="14" lengthAdjust="spacing" textLength="339" x="1945.5" y="117.9951">[]ServiceAPIDescription serviceAPIDescriptions</text><line style="stroke:#181818;stroke-width:0.5;" x1="1940.5" x2="2289.5" y1="125.2969" y2="125.2969"/></g><!--MD5=[404c9000c746ef8bf95b033ffb5c2158]
class AccessTokenReq--><g id="elem_AccessTokenReq"><rect codeLine="158" fill="#F1F1F1" height="113.1875" id="AccessTokenReq" rx="2.5" ry="2.5" style="stroke:#181818;stroke-width:0.5;" width="212" x="1226" y="45"/><ellipse cx="1267.1" cy="61" fill="#F1F1F1" rx="11" ry="11" style="stroke:#181818;stroke-width:1.0;"/><path d="M1270.8813,56.9688 C1270.8813,56.5313 1270.8656,56.3906 1270.7719,56.2344 C1270.6313,56 1270.35,55.8438 1270.0531,55.8438 C1269.7094,55.8438 1269.5688,55.9844 1269.3969,56.4063 C1268.8031,56.0313 1268.0531,55.8438 1267.1781,55.8438 C1265.0688,55.8438 1263.4906,57.1406 1263.4906,58.8594 C1263.4906,59.8281 1264.0219,60.7344 1264.8813,61.2188 C1265.4281,61.5313 1265.975,61.7031 1267.0844,61.8906 C1268.2406,62.0938 1268.5063,62.1563 1268.8656,62.3438 C1269.2406,62.5469 1269.475,62.8906 1269.475,63.25 C1269.475,63.9844 1268.4906,64.5313 1267.2406,64.5313 C1266.1156,64.5313 1265.0375,64.0469 1264.8656,63.4375 C1264.7406,62.9688 1264.7406,62.9688 1264.6156,62.8594 C1264.4594,62.7031 1264.2406,62.6094 1264.0063,62.6094 C1263.725,62.6094 1263.475,62.7344 1263.3031,62.9531 C1263.1938,63.125 1263.1469,63.3125 1263.1469,63.7344 L1263.1469,64.8594 C1263.1469,65.625 1263.4281,65.9844 1264.0219,65.9844 C1264.2875,65.9844 1264.4125,65.9219 1264.6938,65.5781 C1265.5375,66.0156 1266.4281,66.2344 1267.35,66.2344 C1269.6781,66.2344 1271.2406,65.0469 1271.2406,63.2813 C1271.2406,62.3906 1270.9281,61.7031 1270.2406,61.1563 C1269.7094,60.7344 1269.0688,60.4844 1267.5844,60.2188 C1266.3188,59.9844 1266.225,59.9531 1265.8969,59.7813 C1265.5219,59.5938 1265.2563,59.2031 1265.2563,58.8438 C1265.2563,58.1094 1266.1156,57.5469 1267.1781,57.5469 C1268.2406,57.5469 1269.0531,58.0156 1269.2094,58.6875 C1269.3188,59.2344 1269.3188,59.2344 1269.4438,59.375 C1269.5844,59.5 1269.8188,59.6094 1270.0531,59.6094 C1270.3188,59.6094 1270.5688,59.4688 1270.7406,59.25 C1270.85,59.0781 1270.8813,58.9375 1270.8813,58.4688 L1270.8813,56.9688 Z " fill="#000000"/><text fill="#000000" font-family="sans-serif" font-size="14" lengthAdjust="spacing" textLength="122" x="1286.9" y="65.8467">AccessTokenReq</text><line style="stroke:#181818;stroke-width:0.5;" x1="1227" x2="1437" y1="77" y2="77"/><text fill="#000000" font-family="sans-serif" font-size="14" lengthAdjust="spacing" textLength="140" x="1232" y="93.9951">string client_secret</text><text fill="#000000" font-family="sans-serif" font-size="14" lengthAdjust="spacing" textLength="89" x="1232" y="110.292">string scope</text><line style="stroke:#181818;stroke-width:0.5;" x1="1227" x2="1437" y1="117.5938" y2="117.5938"/><text fill="#000000" font-family="sans-serif" font-size="14" lengthAdjust="spacing" textLength="200" x="1232" y="134.5889">string grant_type (required)</text><text fill="#000000" font-family="sans-serif" font-size="14" lengthAdjust="spacing" textLength="181" x="1232" y="150.8857">string client_id (required)</text></g><!--MD5=[bae010974449b4089e6a7d424415f8c7]
class AccessTokenRsp--><g id="elem_AccessTokenRsp"><rect codeLine="164" fill="#F1F1F1" height="113.1875" id="AccessTokenRsp" rx="2.5" ry="2.5" style="stroke:#181818;stroke-width:0.5;" width="251" x="931.5" y="44.5"/><ellipse cx="992.25" cy="60.5" fill="#F1F1F1" rx="11" ry="11" style="stroke:#181818;stroke-width:1.0;"/><path d="M996.0313,56.4688 C996.0313,56.0313 996.0156,55.8906 995.9219,55.7344 C995.7813,55.5 995.5,55.3438 995.2031,55.3438 C994.8594,55.3438 994.7188,55.4844 994.5469,55.9063 C993.9531,55.5313 993.2031,55.3438 992.3281,55.3438 C990.2188,55.3438 988.6406,56.6406 988.6406,58.3594 C988.6406,59.3281 989.1719,60.2344 990.0313,60.7188 C990.5781,61.0313 991.125,61.2031 992.2344,61.3906 C993.3906,61.5938 993.6563,61.6563 994.0156,61.8438 C994.3906,62.0469 994.625,62.3906 994.625,62.75 C994.625,63.4844 993.6406,64.0313 992.3906,64.0313 C991.2656,64.0313 990.1875,63.5469 990.0156,62.9375 C989.8906,62.4688 989.8906,62.4688 989.7656,62.3594 C989.6094,62.2031 989.3906,62.1094 989.1563,62.1094 C988.875,62.1094 988.625,62.2344 988.4531,62.4531 C988.3438,62.625 988.2969,62.8125 988.2969,63.2344 L988.2969,64.3594 C988.2969,65.125 988.5781,65.4844 989.1719,65.4844 C989.4375,65.4844 989.5625,65.4219 989.8438,65.0781 C990.6875,65.5156 991.5781,65.7344 992.5,65.7344 C994.8281,65.7344 996.3906,64.5469 996.3906,62.7813 C996.3906,61.8906 996.0781,61.2031 995.3906,60.6563 C994.8594,60.2344 994.2188,59.9844 992.7344,59.7188 C991.4688,59.4844 991.375,59.4531 991.0469,59.2813 C990.6719,59.0938 990.4063,58.7031 990.4063,58.3438 C990.4063,57.6094 991.2656,57.0469 992.3281,57.0469 C993.3906,57.0469 994.2031,57.5156 994.3594,58.1875 C994.4688,58.7344 994.4688,58.7344 994.5938,58.875 C994.7344,59 994.9688,59.1094 995.2031,59.1094 C995.4688,59.1094 995.7188,58.9688 995.8906,58.75 C996,58.5781 996.0313,58.4375 996.0313,57.9688 L996.0313,56.4688 Z " fill="#000000"/><text fill="#000000" font-family="sans-serif" font-size="14" lengthAdjust="spacing" textLength="121" x="1012.75" y="65.3467">AccessTokenRsp</text><line style="stroke:#181818;stroke-width:0.5;" x1="932.5" x2="1181.5" y1="76.5" y2="76.5"/><text fill="#000000" font-family="sans-serif" font-size="14" lengthAdjust="spacing" textLength="89" x="937.5" y="93.4951">string scope</text><line style="stroke:#181818;stroke-width:0.5;" x1="932.5" x2="1181.5" y1="100.7969" y2="100.7969"/><text fill="#000000" font-family="sans-serif" font-size="14" lengthAdjust="spacing" textLength="217" x="937.5" y="117.792">string access_token (required)</text><text fill="#000000" font-family="sans-serif" font-size="14" lengthAdjust="spacing" textLength="204" x="937.5" y="134.0889">string token_type (required)</text><text fill="#000000" font-family="sans-serif" font-size="14" lengthAdjust="spacing" textLength="239" x="937.5" y="150.3857">DurationSec expires_in (required)</text></g><path d="M2824,737.5 L2824,746.0664 L2671,766.9453 L2824,754.0664 L2824,762.6328 A0,0 0 0 0 2824,762.6328 L3040,762.6328 A0,0 0 0 0 3040,762.6328 L3040,747.5 L3030,737.5 L2824,737.5 A0,0 0 0 0 2824,737.5 " fill="#FEFFDD" style="stroke:#181818;stroke-width:0.5;"/><path d="M3030,737.5 L3030,747.5 L3040,747.5 L3030,737.5 " fill="#FEFFDD" style="stroke:#181818;stroke-width:0.5;"/><text fill="#000000" font-family="sans-serif" font-size="13" lengthAdjust="spacing" textLength="195" x="2830" y="754.5669">Secret provided by CAPIF Core</text><path d="M2827,489.5 L2827,498.0664 L2499,495.1484 L2827,506.0664 L2827,514.6328 A0,0 0 0 0 2827,514.6328 L3013,514.6328 A0,0 0 0 0 3013,514.6328 L3013,499.5 L3003,489.5 L2827,489.5 A0,0 0 0 0 2827,489.5 " fill="#FEFFDD" style="stroke:#181818;stroke-width:0.5;"/><path d="M3003,489.5 L3003,499.5 L3013,499.5 L3003,489.5 " fill="#FEFFDD" style="stroke:#181818;stroke-width:0.5;"/><text fill="#000000" font-family="sans-serif" font-size="13" lengthAdjust="spacing" textLength="165" x="2833" y="506.5669">Id provided by CAPIF Core</text><g id="elem_invokerDiscoverRel"><path d="M1865,277.5 L1865,332.8984 L2107,332.8984 L2107,287.5 L2097,277.5 L1865,277.5 " fill="#FEFFDD" style="stroke:#181818;stroke-width:0.5;"/><path d="M2097,277.5 L2097,287.5 L2107,287.5 L2097,277.5 " fill="#FEFFDD" style="stroke:#181818;stroke-width:1.0;"/><text fill="#000000" font-family="sans-serif" font-size="13" lengthAdjust="spacing" textLength="206" x="1871" y="294.5669">Services can only be discovered</text><text fill="#000000" font-family="sans-serif" font-size="13" lengthAdjust="spacing" textLength="216" x="1875" y="309.6997">for an onboarded invoker through</text><text fill="#000000" font-family="sans-serif" font-size="13" lengthAdjust="spacing" textLength="217" x="1875" y="324.8325">APIInvokerEnrolmentDetails::apiId</text></g><g id="elem_accessInvokerRel"><path d="M1471.5,277.5 L1471.5,332.8984 L1696.5,332.8984 L1696.5,287.5 L1686.5,277.5 L1471.5,277.5 " fill="#FEFFDD" style="stroke:#181818;stroke-width:0.5;"/><path d="M1686.5,277.5 L1686.5,287.5 L1696.5,287.5 L1686.5,277.5 " fill="#FEFFDD" style="stroke:#181818;stroke-width:1.0;"/><text fill="#000000" font-family="sans-serif" font-size="13" lengthAdjust="spacing" textLength="199" x="1477.5" y="294.5669">AccessTokenReq::client_id and</text><text fill="#000000" font-family="sans-serif" font-size="13" lengthAdjust="spacing" textLength="200" x="1481.5" y="309.6997">AccessTokenReq::client_secret</text><text fill="#000000" font-family="sans-serif" font-size="13" lengthAdjust="spacing" textLength="198" x="1481.5" y="324.8325">must match registered invoker</text></g><g id="elem_accessProviderRel"><path d="M6,277.5 L6,332.8984 L244,332.8984 L244,287.5 L234,277.5 L6,277.5 " fill="#FEFFDD" style="stroke:#181818;stroke-width:0.5;"/><path d="M234,277.5 L234,287.5 L244,287.5 L234,277.5 " fill="#FEFFDD" style="stroke:#181818;stroke-width:1.0;"/><text fill="#000000" font-family="sans-serif" font-size="13" lengthAdjust="spacing" textLength="129" x="12" y="294.5669">Function provided in</text><text fill="#000000" font-family="sans-serif" font-size="13" lengthAdjust="spacing" textLength="152" x="16" y="309.6997">AccessTokenReq:scope</text><text fill="#000000" font-family="sans-serif" font-size="13" lengthAdjust="spacing" textLength="213" x="16" y="324.8325">must be registered for a provider</text></g><g id="elem_accessPublishRel"><path d="M1243.5,277.5 L1243.5,332.8984 L1420.5,332.8984 L1420.5,287.5 L1410.5,277.5 L1243.5,277.5 " fill="#FEFFDD" style="stroke:#181818;stroke-width:0.5;"/><path d="M1410.5,277.5 L1410.5,287.5 L1420.5,287.5 L1410.5,277.5 " fill="#FEFFDD" style="stroke:#181818;stroke-width:1.0;"/><text fill="#000000" font-family="sans-serif" font-size="13" lengthAdjust="spacing" textLength="95" x="1249.5" y="294.5669">API provided in</text><text fill="#000000" font-family="sans-serif" font-size="13" lengthAdjust="spacing" textLength="152" x="1253.5" y="309.6997">AccessTokenReq:scope</text><text fill="#000000" font-family="sans-serif" font-size="13" lengthAdjust="spacing" textLength="118" x="1253.5" y="324.8325">must be published</text></g><!--MD5=[1dfed69000c7317ed296a27f11aeb576]
reverse link APIProviderEnrolmentDetails to APIProviderFunctionDetails--><g id="link_APIProviderEnrolmentDetails_APIProviderFunctionDetails"><path codeLine="30" d="M710.477,334.04 C710.52,342.46 704.537,355.16 700,365 C685.351,396.77 659.783,424.46 633.481,446.69 " fill="none" id="APIProviderEnrolmentDetails-backto-APIProviderFunctionDetails" style="stroke:#181818;stroke-width:1.0;"/><polygon fill="none" points="701,325,702.5787,332.0362,709.6809,333.2851,708.1021,326.2489,701,325" style="stroke:#181818;stroke-width:1.0;"/><text fill="#000000" font-family="sans-serif" font-size="13" lengthAdjust="spacing" textLength="8" x="707.3672" y="322.5346">1</text><text fill="#000000" font-family="sans-serif" font-size="13" lengthAdjust="spacing" textLength="25" x="612.7456" y="440.0197">1..N</text></g><!--MD5=[32e33ed6e988ce1198ac80432a7c502c]
reverse link APIProviderFunctionDetails to RegistrationInformation--><g id="link_APIProviderFunctionDetails_RegistrationInformation"><path codeLine="31" d="M747.838,558.41 C769.978,583.25 806.941,664.762 828.327,714.378 " fill="none" id="APIProviderFunctionDetails-backto-RegistrationInformation" style="stroke:#181818;stroke-width:1.0;"/><polygon fill="none" points="737,551,739.694,557.689,746.9046,557.7749,744.2106,551.0859,737,551" style="stroke:#181818;stroke-width:1.0;"/><text fill="#000000" font-family="sans-serif" font-size="13" lengthAdjust="spacing" textLength="8" x="744.1156" y="549.3597">1</text><text fill="#000000" font-family="sans-serif" font-size="13" lengthAdjust="spacing" textLength="8" x="816.903" y="703.5193">1</text></g><!--MD5=[24fd0a7322b75553b6b6db96abc90821]
reverse link APIProviderFunctionDetails to ApiProviderFuncRole--><g id="link_APIProviderFunctionDetails_ApiProviderFuncRole"><path codeLine="32" d="M335.724,536.29 C281.625,548.62 370.755,646.222 432.269,706.48 " fill="none" id="APIProviderFunctionDetails-backto-ApiProviderFuncRole" style="stroke:#181818;stroke-width:1.0;"/><polygon fill="none" points="349,535,342.6403,531.6009,337.0566,536.164,343.4163,539.5631,349,535" style="stroke:#181818;stroke-width:1.0;"/><text fill="#000000" font-family="sans-serif" font-size="13" lengthAdjust="spacing" textLength="8" x="333.8844" y="532.7847">1</text><text fill="#000000" font-family="sans-serif" font-size="13" lengthAdjust="spacing" textLength="8" x="416.2304" y="695.3367">1</text></g><!--MD5=[6fc1395ce316f0c6c8bcb39b6646416c]
link ServiceAPIDescription to publishProviderRel--><g id="link_ServiceAPIDescription_publishProviderRel"><path codeLine="45" d="M1989.57,815.071 C1979.2,819.934 1968.56,824.229 1958,827.5 C1692.28,909.786 1601.96,801.316 1334,876 C1289.52,888.397 1242.87,913.109 1210.57,932.359 " fill="none" id="ServiceAPIDescription-publishProviderRel" style="stroke:#181818;stroke-width:1.0;stroke-dasharray:7.0,7.0;"/></g><!--MD5=[23248c05f0bfbcbc7c0607e40053bdfe]
link publishProviderRel to APIProviderFunctionDetails--><g id="link_publishProviderRel_APIProviderFunctionDetails"><path codeLine="46" d="M1159.66,932.396 C1137.76,873.654 1077.59,731.772 982,652 C901.202,584.57 833.704,643.084 761,567 C737.696,542.61 770.731,495 737,495 " fill="none" id="publishProviderRel-APIProviderFunctionDetails" style="stroke:#181818;stroke-width:1.0;stroke-dasharray:7.0,7.0;"/></g><!--MD5=[1fbfbc08aaf5c1016e5b477a5c807753]
link APIProviderFunctionDetails to aefIdRel--><g id="link_APIProviderFunctionDetails_aefIdRel"><path codeLine="64" d="M737,495 C770.731,495 734.484,546.15 761,567 C823.758,616.35 1041.14,579.34 1119,597 C1262,629.433 1421.75,700.7 1493.89,734.922 " fill="none" id="APIProviderFunctionDetails-aefIdRel" style="stroke:#181818;stroke-width:1.0;stroke-dasharray:7.0,7.0;"/></g><!--MD5=[a8dd1463d7e0362004530e208ae0e723]
link aefIdRel to AefProfile--><g id="link_aefIdRel_AefProfile"><path codeLine="65" d="M1577.11,775.047 C1615.56,794.314 1668.83,828.106 1693,876 C1720.23,929.965 1754.45,1012 1694,1012 " fill="none" id="aefIdRel-AefProfile" style="stroke:#181818;stroke-width:1.0;stroke-dasharray:7.0,7.0;"/></g><!--MD5=[466189dcb9a8e4b8c26ae027cf1e5f20]
reverse link ServiceAPIDescription to AefProfile--><g id="link_ServiceAPIDescription_AefProfile"><path codeLine="112" d="M1971.95,780.501 C1965.27,791.17 1973.05,814.74 1958,827.5 C1886.02,888.528 1786.21,921.239 1700.67,938.769 " fill="none" id="ServiceAPIDescription-backto-AefProfile" style="stroke:#181818;stroke-width:1.0;"/><polygon fill="none" points="1984,775,1976.8806,773.8537,1973.0842,779.9845,1980.2036,781.1309,1984,775" style="stroke:#181818;stroke-width:1.0;"/><text fill="#000000" font-family="sans-serif" font-size="13" lengthAdjust="spacing" textLength="8" x="1968.5094" y="772.9461">1</text><text fill="#000000" font-family="sans-serif" font-size="13" lengthAdjust="spacing" textLength="25" x="1700.67" y="935.8359">1..N</text></g><!--MD5=[4e3bc88c9a568add446b6dd5494f2fa8]
reverse link AefProfile to InterfaceDescription--><g id="link_AefProfile_InterfaceDescription"><path codeLine="113" d="M1707.16,956.434 C1809.32,963.131 1901.69,1045.98 1955.08,1104.952 " fill="none" id="AefProfile-backto-InterfaceDescription" style="stroke:#181818;stroke-width:1.0;"/><polygon fill="none" points="1694,956,1699.8649,960.1956,1705.9935,956.3956,1700.1286,952.2,1694,956" style="stroke:#181818;stroke-width:1.0;"/><text fill="#000000" font-family="sans-serif" font-size="13" lengthAdjust="spacing" textLength="8" x="1700.7188" y="952.5797">1</text><text fill="#000000" font-family="sans-serif" font-size="13" lengthAdjust="spacing" textLength="25" x="1926.3982" y="1097.8706">1..N</text></g><!--MD5=[f54ae1f8c40dd3c35417abcf25159825]
reverse link AefProfile to Protocol--><g id="link_AefProfile_Protocol"><path codeLine="114" d="M1346.56,975.98 C1335.91,986.994 1353.85,1018.735 1360,1044 C1366.91,1072.403 1381.47,1101.797 1394.51,1124.385 " fill="none" id="AefProfile-backto-Protocol" style="stroke:#181818;stroke-width:1.0;"/><polygon fill="none" points="1359,972,1352.0671,970.0165,1347.5696,975.6532,1354.5025,977.6367,1359,972" style="stroke:#181818;stroke-width:1.0;"/><text fill="#000000" font-family="sans-serif" font-size="13" lengthAdjust="spacing" textLength="24" x="1327.4484" y="969.2157">0..1</text><text fill="#000000" font-family="sans-serif" font-size="13" lengthAdjust="spacing" textLength="24" x="1364.3007" y="1113.5275">0..1</text></g><!--MD5=[f6f9235f5e40fa87c39af7382bde67f6]
reverse link AefProfile to SecurityMethod--><g id="link_AefProfile_SecurityMethod"><path codeLine="115" d="M1356.35,1000.944 C1352.13,1050.13 1354.1,1222.775 1356,1225 C1412.88,1291.493 1661.07,1261.27 1745,1286 C1764.87,1291.854 1785.66,1300.012 1804.73,1308.396 " fill="none" id="AefProfile-backto-SecurityMethod" style="stroke:#181818;stroke-width:1.0;"/><polygon fill="none" points="1359,988,1353.8785,993.0765,1356.5947,999.7565,1361.7162,994.68,1359,988" style="stroke:#181818;stroke-width:1.0;"/><text fill="#000000" font-family="sans-serif" font-size="13" lengthAdjust="spacing" textLength="8" x="1343.2516" y="985.9517">1</text><text fill="#000000" font-family="sans-serif" font-size="13" lengthAdjust="spacing" textLength="25" x="1772.0911" y="1301.4566">1..N</text></g><!--MD5=[bc81cc7157875ef60aeaabeb0463b2a7]
reverse link AefProfile to DataFormat--><g id="link_AefProfile_DataFormat"><path codeLine="116" d="M1707.09,924.087 C1917.41,926.913 1968.98,998.559 2158,1105 C2172.09,1112.933 2186.44,1123.213 2198.87,1132.965 " fill="none" id="AefProfile-backto-DataFormat" style="stroke:#181818;stroke-width:1.0;"/><polygon fill="none" points="1694,924,1699.9735,928.0395,1705.9997,924.0791,1700.0262,920.0396,1694,924" style="stroke:#181818;stroke-width:1.0;"/><text fill="#000000" font-family="sans-serif" font-size="13" lengthAdjust="spacing" textLength="24" x="1700.4688" y="919.4687">0..1</text><text fill="#000000" font-family="sans-serif" font-size="13" lengthAdjust="spacing" textLength="25" x="2163.8401" y="1121.8609">0..N</text></g><!--MD5=[e592637c20a0d043bd71be0ad43f8798]
reverse link InterfaceDescription to SecurityMethod--><g id="link_InterfaceDescription_SecurityMethod"><path codeLine="117" d="M1863.04,1209.377 C1856.45,1226.262 1861.61,1265.5 1867.6,1297.45 " fill="none" id="InterfaceDescription-backto-SecurityMethod" style="stroke:#181818;stroke-width:1.0;"/><polygon fill="none" points="1873,1201,1865.8336,1201.8015,1863.8171,1208.7249,1870.9835,1207.9234,1873,1201" style="stroke:#181818;stroke-width:1.0;"/><text fill="#000000" font-family="sans-serif" font-size="13" lengthAdjust="spacing" textLength="8" x="1857.6719" y="1199.5966">1</text><text fill="#000000" font-family="sans-serif" font-size="13" lengthAdjust="spacing" textLength="25" x="1839.2366" y="1286.3023">1..N</text></g><!--MD5=[e1fc5e616a37d3f1ca25b204c95c7d12]
reverse link AefProfile to Version--><g id="link_AefProfile_Version"><path codeLine="118" d="M1347.69,1035.066 C1327.87,1048.206 1285.33,1077.558 1245.85,1104.942 " fill="none" id="AefProfile-backto-Version" style="stroke:#181818;stroke-width:1.0;"/><polygon fill="none" points="1359,1028,1351.7921,1027.7851,1348.8214,1034.3558,1356.0293,1034.5708,1359,1028" style="stroke:#181818;stroke-width:1.0;"/><text fill="#000000" font-family="sans-serif" font-size="13" lengthAdjust="spacing" textLength="8" x="1343.2516" y="1027.7642">1</text><text fill="#000000" font-family="sans-serif" font-size="13" lengthAdjust="spacing" textLength="25" x="1225.2588" y="1097.8599">1..N</text></g><!--MD5=[36a35205f395fb90a46c68b62d8b6099]
reverse link Version to Resource--><g id="link_Version_Resource"><path codeLine="119" d="M1306.74,1188.505 C1321.64,1199.878 1306.51,1236.166 1328,1256 C1339.61,1266.715 1363.57,1278.585 1391.87,1290.071 " fill="none" id="Version-backto-Resource" style="stroke:#181818;stroke-width:1.0;"/><polygon fill="none" points="1294,1185,1298.7263,1190.4463,1305.5714,1188.1784,1300.8452,1182.732,1294,1185" style="stroke:#181818;stroke-width:1.0;"/><text fill="#000000" font-family="sans-serif" font-size="13" lengthAdjust="spacing" textLength="25" x="1301.0477" y="1182.6468">1..N</text><text fill="#000000" font-family="sans-serif" font-size="13" lengthAdjust="spacing" textLength="25" x="1366.87" y="1287.1379">1..N</text></g><!--MD5=[a14f1d04caa70cf746e3c6556cdb78a6]
reverse link Version to CustomOperation--><g id="link_Version_CustomOperation"><path codeLine="120" d="M1306.82,1156.951 C1320.02,1168.433 1306.38,1202.413 1293,1225 C1279.2,1248.288 1259.14,1235.865 1240,1255 C1231.11,1263.887 1223.27,1274.643 1216.56,1285.582 " fill="none" id="Version-backto-CustomOperation" style="stroke:#181818;stroke-width:1.0;"/><polygon fill="none" points="1294,1153,1298.5558,1158.5897,1305.4678,1156.5342,1300.9119,1150.9445,1294,1153" style="stroke:#181818;stroke-width:1.0;"/><text fill="#000000" font-family="sans-serif" font-size="13" lengthAdjust="spacing" textLength="24" x="1301.0234" y="1149.0968">0..1</text><text fill="#000000" font-family="sans-serif" font-size="13" lengthAdjust="spacing" textLength="25" x="1192.3836" y="1278.9058">0..N</text></g><!--MD5=[d5619243a085e1295dffce54e9f6274a]
reverse link CustomOperation to CommunicationType--><g id="link_CustomOperation_CommunicationType"><path codeLine="121" d="M1362.57,1378.361 C1371.81,1388.716 1360.55,1415.528 1369,1437 C1376.09,1455.012 1385.29,1474.301 1393.6,1490.653 " fill="none" id="CustomOperation-backto-CommunicationType" style="stroke:#181818;stroke-width:1.0;"/><polygon fill="none" points="1350,1374,1354.359,1379.7445,1361.3382,1377.9302,1356.9791,1372.1857,1350,1374" style="stroke:#181818;stroke-width:1.0;"/><text fill="#000000" font-family="sans-serif" font-size="13" lengthAdjust="spacing" textLength="8" x="1356.9609" y="1371.9095">1</text><text fill="#000000" font-family="sans-serif" font-size="13" lengthAdjust="spacing" textLength="8" x="1381.5519" y="1480.0575">1</text></g><!--MD5=[35aaaa8e071c36fecda6fe67b70e4657]
reverse link CustomOperation to Operation--><g id="link_CustomOperation_Operation"><path codeLine="122" d="M1361.92,1355.21 C1369.29,1365.844 1359.9,1390.363 1349,1406 C1328,1436.134 1302.09,1414.935 1272,1436 C1259.66,1444.641 1247.94,1455.489 1237.4,1466.727 " fill="none" id="CustomOperation-backto-Operation" style="stroke:#181818;stroke-width:1.0;"/><polygon fill="none" points="1350,1350,1353.8985,1356.0665,1360.9977,1354.8011,1357.0992,1348.7347,1350,1350" style="stroke:#181818;stroke-width:1.0;"/><text fill="#000000" font-family="sans-serif" font-size="13" lengthAdjust="spacing" textLength="25" x="1356.7773" y="1346.9096">0..N</text><text fill="#000000" font-family="sans-serif" font-size="13" lengthAdjust="spacing" textLength="25" x="1216.3266" y="1455.8698">0..N</text></g><!--MD5=[c38a1b460d4f31e5f2da524e0c591a22]
reverse link Resource to CommunicationType--><g id="link_Resource_CommunicationType"><path codeLine="123" d="M1386.05,1392.797 C1363.03,1405.025 1379.55,1454.789 1395.51,1490.989 " fill="none" id="Resource-backto-CommunicationType" style="stroke:#181818;stroke-width:1.0;"/><polygon fill="none" points="1399,1390,1392.2911,1387.356,1387.2701,1392.5319,1393.979,1395.1759,1399,1390" style="stroke:#181818;stroke-width:1.0;"/><text fill="#000000" font-family="sans-serif" font-size="13" lengthAdjust="spacing" textLength="8" x="1384.0391" y="1388.5845">1</text><text fill="#000000" font-family="sans-serif" font-size="13" lengthAdjust="spacing" textLength="8" x="1392.8477" y="1479.8503">1</text></g><!--MD5=[c84e77e970627b4aa18bdf4438691386]
reverse link APIInvokerEnrolmentDetails to ServiceAPIDescription--><g id="link_APIInvokerEnrolmentDetails_ServiceAPIDescription"><path codeLine="144" d="M2344.08,528.69 C2288.55,542.15 2194.9,632.815 2135.87,694.951 " fill="none" id="APIInvokerEnrolmentDetails-backto-ServiceAPIDescription" style="stroke:#181818;stroke-width:1.0;"/><polygon fill="none" points="2357,527,2350.5318,523.8121,2345.1014,528.5566,2351.5696,531.7445,2357,527" style="stroke:#181818;stroke-width:1.0;"/><text fill="#000000" font-family="sans-serif" font-size="13" lengthAdjust="spacing" textLength="169" x="2235" y="610.0669">APIList containing services</text><text fill="#000000" font-family="sans-serif" font-size="13" lengthAdjust="spacing" textLength="159" x="2242" y="625.1997">available for the invoker.</text><text fill="#000000" font-family="sans-serif" font-size="13" lengthAdjust="spacing" textLength="139" x="2252" y="640.3325">Provided by capifcore</text><text fill="#000000" font-family="sans-serif" font-size="13" lengthAdjust="spacing" textLength="8" x="2341.8469" y="524.4597">1</text><text fill="#000000" font-family="sans-serif" font-size="13" lengthAdjust="spacing" textLength="25" x="2139.9144" y="687.8695">1..N</text></g><!--MD5=[ec3e366bed862608bf078ba3f0de1fcf]
reverse link APIInvokerEnrolmentDetails to OnboardingInformation--><g id="link_APIInvokerEnrolmentDetails_OnboardingInformation"><path codeLine="145" d="M2794.62,559.84 C2792.74,584.84 2725.37,657.421 2677.14,706.406 " fill="none" id="APIInvokerEnrolmentDetails-backto-OnboardingInformation" style="stroke:#181818;stroke-width:1.0;"/><polygon fill="none" points="2785,551,2786.7153,558.0041,2793.8404,559.1147,2792.1251,552.1105,2785,551" style="stroke:#181818;stroke-width:1.0;"/><text fill="#000000" font-family="sans-serif" font-size="13" lengthAdjust="spacing" textLength="8" x="2792.1531" y="549.2472">1</text><text fill="#000000" font-family="sans-serif" font-size="13" lengthAdjust="spacing" textLength="8" x="2675.3472" y="695.6017">1</text></g><!--MD5=[4dba3bda9f45971a684d6ca3a174d96b]
reverse link DiscoveredAPIs to ServiceAPIDescription--><g id="link_DiscoveredAPIs_ServiceAPIDescription"><path codeLine="152" d="M2305.04,114.99 C2396.8,146.46 2195.64,542.51 2114.22,694.845 " fill="none" id="DiscoveredAPIs-backto-ServiceAPIDescription" style="stroke:#181818;stroke-width:1.0;"/><polygon fill="none" points="2292,113,2297.3244,117.8632,2303.8614,114.8187,2298.5369,109.9556,2292,113" style="stroke:#181818;stroke-width:1.0;"/><text fill="#000000" font-family="sans-serif" font-size="13" lengthAdjust="spacing" textLength="25" x="2298.218" y="110.2119">0..N</text><text fill="#000000" font-family="sans-serif" font-size="13" lengthAdjust="spacing" textLength="25" x="2090.3601" y="687.9701">0..N</text></g><!--MD5=[b941f39d5795bd968f5b2746ae15b2a6]
link DiscoveredAPIs to invokerDiscoverRel--><g id="link_DiscoveredAPIs_invokerDiscoverRel"><path codeLine="154" d="M2092.53,137.19 C2067.05,177.09 2026.06,241.26 2003.07,277.27 " fill="none" id="DiscoveredAPIs-invokerDiscoverRel" style="stroke:#181818;stroke-width:1.0;stroke-dasharray:7.0,7.0;"/></g><!--MD5=[167d5f16055c93f4813923e0d635b921]
link invokerDiscoverRel to APIInvokerEnrolmentDetails--><g id="link_invokerDiscoverRel_APIInvokerEnrolmentDetails"><path codeLine="155" d="M2014.69,332.68 C2073.84,384.78 2215.68,495 2357,495 " fill="none" id="invokerDiscoverRel-APIInvokerEnrolmentDetails" style="stroke:#181818;stroke-width:1.0;stroke-dasharray:7.0,7.0;"/></g><!--MD5=[eced79870f0f42b71f7b51dbbfa52fd9]
link AccessTokenReq to accessInvokerRel--><g id="link_AccessTokenReq_accessInvokerRel"><path codeLine="172" d="M1439,145 C1509.8,145 1555.23,232.12 1574.06,277.39 " fill="none" id="AccessTokenReq-accessInvokerRel" style="stroke:#181818;stroke-width:1.0;stroke-dasharray:7.0,7.0;"/></g><!--MD5=[15a7ea6ce1f602ff530f262779964f92]
link accessInvokerRel to APIInvokerEnrolmentDetails--><g id="link_accessInvokerRel_APIInvokerEnrolmentDetails"><path codeLine="173" d="M1647.61,332.58 C1778.14,384.64 2086.74,495 2357,495 " fill="none" id="accessInvokerRel-APIInvokerEnrolmentDetails" style="stroke:#181818;stroke-width:1.0;stroke-dasharray:7.0,7.0;"/></g><!--MD5=[b09cdebcbc63a2ae0feb2e7b9abafce5]
link AccessTokenReq to accessProviderRel--><g id="link_AccessTokenReq_accessProviderRel"><path codeLine="175" d="M1225,105 C1187.75,105 1229.81,162.66 1200,185 C1158.2,216.32 309.369,184.95 260,202 C216.13,217.15 174.988,252.45 149.917,277.26 " fill="none" id="AccessTokenReq-accessProviderRel" style="stroke:#181818;stroke-width:1.0;stroke-dasharray:7.0,7.0;"/></g><!--MD5=[df18ed20cccb55badc3661fe07dab189]
link accessProviderRel to APIProviderFunctionDetails--><g id="link_accessProviderRel_APIProviderFunctionDetails"><path codeLine="176" d="M139.951,332.68 C171.347,384.78 249.525,495 349,495 " fill="none" id="accessProviderRel-APIProviderFunctionDetails" style="stroke:#181818;stroke-width:1.0;stroke-dasharray:7.0,7.0;"/></g><!--MD5=[1a10d32547433a40943f5dcf634671cf]
link AccessTokenReq to accessPublishRel--><g id="link_AccessTokenReq_accessPublishRel"><path codeLine="178" d="M1439,105 C1516.28,105 1411.26,222.84 1358.74,277.16 " fill="none" id="AccessTokenReq-accessPublishRel" style="stroke:#181818;stroke-width:1.0;stroke-dasharray:7.0,7.0;"/></g><!--MD5=[8a9b47164ecb9b78d5fd082008ee8686]
link accessPublishRel to AefProfile--><g id="link_accessPublishRel_AefProfile"><path codeLine="179" d="M1331.6,332.81 C1329.84,461.77 1324.35,1012 1359,1012 " fill="none" id="accessPublishRel-AefProfile" style="stroke:#181818;stroke-width:1.0;stroke-dasharray:7.0,7.0;"/></g><!--MD5=[93f2bb9418d3d8f5c2bfd8821a549b22]
@startuml
package "Provider Service" #palegreen {
    struct APIProviderEnrolmentDetails {
        string apiProvDomId
        string apiProvDomInfo
        []APIProviderFunctionDetails apiProvFuncs
        string regSec (required)
    }
    note right of APIProviderEnrolmentDetails::apiProvDomId
        Id provided by CAPIF Core
    end note
    struct APIProviderFunctionDetails {
        string apiProvFuncId
        string apiProvFuncInfo
        ApiProviderFuncRole apiProviderFuncRole (required)
        RegistrationInformation regInfo (required)
    }
    note right of APIProviderFunctionDetails::apiProvFuncId
        Id provided by CAPIF Core
    end note
    enum ApiProviderFuncRole {
        AEF: API provider function is API Exposing Function.
        APF: API provider function is API Publishing Function.
        AMF: API Provider function is API Management Function.
    }
    struct RegistrationInformation {
        string apiProvCert
        string apiProvPubKey (required)
    }
}
APIProviderEnrolmentDetails::apiProvFuncs "1" o- - "1..N" APIProviderFunctionDetails
APIProviderFunctionDetails::regInfo "1" o- - "1" RegistrationInformation
APIProviderFunctionDetails::apiProviderFuncRole "1" o- - "1" ApiProviderFuncRole

package "Publish Service" #lightblue {
    struct ServiceAPIDescription {
        string apiId
        string apiName (required)
        string description
        []AefProfile aefProfiles
    }
    note left of ServiceAPIDescription::apiId
        Id provided by CAPIF Core
    end note
    note "apfId matching\n APIProviderFunctionDetails::apiProvFuncId\n must be provided when publishing" as publishProviderRel
    ServiceAPIDescription .. publishProviderRel
    publishProviderRel .. APIProviderFunctionDetails::apiProvFuncId
    struct AefProfile {
        string aefId (required)
        DataFormat dataFormat
        string domainName
        []InterfaceDescription interfaceDescriptions
        Protocol protocol
        []SecurityMethod securityMethods
        []Version versions (required)
    }
    enum DataFormat {
        JSON
    }
    enum Protocol {
        HTTP_1_1
        HTTP_2
    }
    note "AefProfile::aefId should match\n APIProviderFunctionDetails::apiProvFuncId" as aefIdRel
    APIProviderFunctionDetails::apiProvFuncId .. aefIdRel
    aefIdRel .. AefProfile::aefId
    struct InterfaceDescription {
        string ipv4Address
        string ipv6Address
        int port
        []SecurityMethod securityMethods
    }
    note left of InterfaceDescription::securityMethods
        Security methods supported by the interface,
        it take precedence over the security methods
        provided in AefProfile, for this specific interface.
    end note
    struct Version {
        []CustomOperation custOperations
        DateTime expiry
        []Resource resources
        string apiVersion (required)
    }
    struct CustomOperation {
        CommunicationType commType (required)
        string custOpName (required)
        string description
        []Operation operations
    }
    enum Operation {
        GET
        POST
        PUT
        PATCH
        DELETE
    }
    enum SecurityMethod {
        PSK
        PKI
        OAUTH
    }
    struct Resource {
        string resourceName (required)
        string uri (required)
        CommunicationType commType (required)
        string description
    }
    enum CommunicationType {
        REQUEST_RESPONSE
        SUBSCRIBE_NOTIFY
    }
}
ServiceAPIDescription::aefProfiles "1" o- - "1..N" AefProfile
AefProfile::interfaceDescriptions "1" o- - "1..N" InterfaceDescription
AefProfile::protocol "0..1" o- - "0..1" Protocol
AefProfile::securityMethods "1" o- - "1..N" SecurityMethod
AefProfile::dataFormat "0..1" o- - "0..N" DataFormat
InterfaceDescription::securityMethods "1" o- - "1..N" SecurityMethod
AefProfile::versions "1" o- - "1..N" Version
Version::resources "1..N" o- - "1..N" Resource
Version::custOperations "0..1" o- - "0..N" CustomOperation
CustomOperation::CommunicationType "1" o- - "1" CommunicationType
CustomOperation::operations "0..N" o- - "0..N" Operation
Resource::commType "1" o- - "1" CommunicationType

package "Invoker Management" #coral {
    struct APIInvokerEnrolmentDetails {
        string apiInvokerId
        string apiInvokerInformation
        APIList apiList
        OnboardingInformation onboardingInformation (required)
    }
    struct OnboardingInformation {
        string apiInvokerCertificate
        string ApiInvokerPublicKey (required)
        string onboardingSecret
    }
}
note right of OnboardingInformation::onboardingSecret
    Secret provided by CAPIF Core
end note
note left of APIInvokerEnrolmentDetails::apiInvokerId
    Id provided by CAPIF Core
end note
APIInvokerEnrolmentDetails::apiList "1" o- - "1..N" ServiceAPIDescription : APIList containing services\n available for the invoker.\n Provided by capifcore
APIInvokerEnrolmentDetails::onboardingInformation "1" o- - "1" OnboardingInformation

package "Discover Service"  #Yellow {
    struct DiscoveredAPIs {
        []ServiceAPIDescription serviceAPIDescriptions
    }
}
DiscoveredAPIs::serviceAPIDescriptions "0..N" o- - "0..N" ServiceAPIDescription
note "Services can only be discovered\n for an onboarded invoker through\n APIInvokerEnrolmentDetails::apiId" as invokerDiscoverRel
DiscoveredAPIs .. invokerDiscoverRel
invokerDiscoverRel .. APIInvokerEnrolmentDetails::apiInvokerId

package "Security Service" #Pink {
    struct AccessTokenReq {
        string grant_type (required)
        string client_id (required)
        string client_secret
        string scope
    }
    struct AccessTokenRsp {
        string access_token (required)
        string token_type (required)
        DurationSec expires_in (required)
        string scope
    }
}
note "AccessTokenReq::client_id and\n AccessTokenReq::client_secret\n must match registered invoker" as accessInvokerRel
AccessTokenReq::client_id .. accessInvokerRel
accessInvokerRel .. APIInvokerEnrolmentDetails::apiInvokerId
note "Function provided in\n AccessTokenReq:scope\n must be registered for a provider" as accessProviderRel
AccessTokenReq::scope .. accessProviderRel
accessProviderRel .. APIProviderFunctionDetails::apiProvFuncId
note "API provided in\n AccessTokenReq:scope\n must be published" as accessPublishRel
AccessTokenReq::scope .. accessPublishRel
accessPublishRel .. AefProfile::aefId
@enduml

PlantUML version 1.2022.14beta6(Unknown compile time)
(GPL source distribution)
Java Runtime: Java(TM) SE Runtime Environment
JVM: Java HotSpot(TM) 64-Bit Server VM
Default Encoding: UTF-8
Language: en
Country: US
--></g></svg>